<svg xmlns="http://www.w3.org/2000/svg" viewBox="0 0 897.591 222.26"><defs><style>.cls-1{fill:#c69963;}</style></defs><title>border-3-top</title><g id="Layer_2" data-name="Layer 2"><g id="Capa_1" data-name="Capa 1"><path class="cls-1" d="M23.957,175.785c17.9-9.278,36.719-14.666,59.572-17.259,43.653-4.918,90.207.326,134.718-.034,20.708-.133,40.677-2.481,60.867-4.232,24.187-2.112,46.513-5.692,67.373-14.692,18.157-7.827,36.734-14.344,50.15-27.343,6.838-6.628,12.208-14.173,17.12-21.859,1.069-1.635,7.184-19.057-1.071-12.188-13.732,11.259-22.432,23.757-43.631,26.584-8.175,1.072-19.451-.425-27.387-2.926-8.885-2.756-18.93-13.138-28.716-11.517-11.2,1.772,1,12.317-15.575,7.835-10.507-2.888-22.77-3.016-30.337,3.879-5.151,4.806-20.172,7.09-13.883,15.788,7.044,9.634,19.562,10.535,31.323,13.291,4.152.985,10.8,1.417,14.41,3.684,5.909,3.7-2.328,6.393-5.713,6.764a100.1,100.1,0,0,1-36.057-2.38c-24.737-6.354-46.661-18.965-70.344-27.109.3.094.194.052-.917-.324-9.644-3.088-17.282-6.325-27.2-4.609-8.5,1.442-13.752,7-23.162,7.2-31.27.395,13.494,21.471,24.8,25.474,10.153,3.94,11.839,9.488-.7,8.088-10.992-1.283-21.707-5.787-32.569-8.454-22.248-5.379-46.565-17.617-67.4-10.713-7.853,2.59-11.163,9.749-19.206,12.491-14.073,4.7,3.108,7.458-.664,14.765-2.718,5.314-16.039,5.586-21.692,8.583-6.393,3.46-15.452,11.954-17.383,18.294-.667,2.074-2.772,17.771,6.377,13.321C15.449,192.019,14.845,180.447,23.957,175.785Z"/><path class="cls-1" d="M396.807,129.331c-2-6.238-18.269,6.022-20.948,7.278a185.866,185.866,0,0,1-34.8,13.691c-43.556,11.963-92.623,16.049-141.217,15.142-20.951-.362-41.831-1.827-62.7-1.186q-17.767.549-35.806.466c-11.626-.048-21.707,2.669-33.167,3.161-23,.874-32.919,11.359-46.7,22.048-4.516,3.454-6.086,13.753-6.2,19.33-.071,3.169-.352,7.159,1.9,10.643,3.583,5.516,6.776-.029,6.266-2.715-2.972-16.245,13.255-29.346,27.592-35.656,2.643-1.08,18.978-8.322,18.54.889-.416,9.454,11.351,11.6,17.851,6.334,12.891-10.23,37.485-13.248,56.656-15.056,10.3-.92,20.859-2.287,31.273-2.774,7.482-.33,21.564,2.76,8.405,6.489-8.1,2.279-22.479,12.36-7.286,18.083-.659-.18-.6-.131,1.637.554,1.67.444,1.666.416,1.063.23,10.646,2.278,21.916-3.44,29.679-6.694,9.34-3.89,19.1-7.317,28.937-10.541,6.551-1.486,58.767-13.506,58.14-7.251-.133,3-11.129,10.722-1.545,12.74,8.166,1.719,20.927.409,28.955-.681,7.805-1.03,15.3-3.225,21.22-7.088,8.037-5.27,9.221-13.324,15.82-19.146C366.947,152.219,400.2,139.113,396.807,129.331Z"/><path class="cls-1" d="M350.547,53.975c8.8,7.873,28.533,14.072,34.439-.172a5.666,5.666,0,0,0-7.349-7.6c-7.045,2.451-15.557-.394-18.547-6.962-5.162-11.456,3.936-26.482,16.727-27.6,14.846-1.3,26.262,3.093,34.35,15.964,2.7,4.3,3.89,12.084,8.841,14.758,6.951,3.728.377-12.613-.3-13.792C410.212,14.856,399.848.706,381.5.753,352.422-3.766,325.239,30.887,350.547,53.975Z"/><path class="cls-1" d="M865.178,160.581c-4.385-1.974-12.962-3.039-15.8-6.31-2.207-2.531,5.353-6.961,5.742-10.067,1.1-9.06-17.909-13.86-26.1-14.926-26.511-3.173-53.125,7.675-80.048,13.747-6.888,1.58-16.993,5.6-23.653,4.365-5.329-.986-5.446-5.424.233-7.794,14.454-6.065,31.59-5.255,43.276-17.871,9.4-10.271-11.759-6.643-16.87-9.157-11.806-5.557-22.643-9.616-37.615-4.067-18.141,4.181-34.22,19.3-52.763,23.429-8.855,1.973-17.243,7.547-26.726,8.029-11.346.565-21.078,1.124-32.12-.206-3.107-.344-16.128-2.364-9.048-7.16,4.83-3.261,19.317-2.128,25.733-3.773,8.28-2.028,21.859-6.222,23.823-14.556.8-3.6-16.191-13.579-19.689-16.072a28.33,28.33,0,0,0-23.541-3.3c-3.706,1.151-11.981,6.731-13.851,1.2-2.646-7.771-6.3-9.83-15.294-4.339-9.932,6-16.47,7.453-27.765,9.62-15.917,3.108-39.741-3.553-50.553-13.125-4.26-3.7-7.7-12.231-12.982-14.494-8.711-3.75,1.125,15.634,2.247,16.994,22.2,29.147,61.439,47.885,102.792,56.426,42.773,9.021,89.387,11.123,136.179,8.69,45.238-2.133,93.073-2.5,130.828,11.991,8.965,3.482,16.1,9.357,23.518,14.32,4.119,2.739,10.054,15.76,17.706,12.587C911.334,186.982,870.231,163.235,865.178,160.581Z"/><path class="cls-1" d="M833.105,170.377c-23.39-4.673-46.734-6.5-72.058-6.741-14-.12-28.18.115-42.382.348-30.684.5-61.461,1.008-90.688-2.039-44.353-4.5-87.091-11.9-119.344-35.709-2.661-1.957-5.941-5.527-9.69-6.189-3.947-.7-4.056,3.485-2.8,5.146,5.129,6.78,13,11.393,20.294,16.565,15.852,11.167,24.153,27.63,40.98,37.72,6.379,3.81,15.676,7.718,24.38,7.589,5.426-.013,22.939-.841,24.543-5.955,2.022-6.46-9.337-10.233-14.113-13.419-8.291-5.4,17.052-1.4,18.432-1.268,18.483,3.43,37.138,7.366,55.179,12.011,9.112,2.349,17.643,5.73,24.587,10.586,5.5,3.934,21.4,11.584,30.622,3.777,7.379-6.3-4.184-11.515-8.969-13.681-11.151-4.938,16.464-6.027,18.656-6.119,22.083.551,50.02-.1,67.337,9.277,4.45,2.44,10.551,9.6,18.272,7.3,9.555-2.885.449-8.757,3.545-12.381,7.357-8.789,41.2,18.425,46.036,20.909,5.089,2.874,3.127,23.6,8.2,22.864,10.833-1.639,6.077-21.061,4.351-23.666C874.68,183.941,848.8,173.652,833.105,170.377Z"/><path class="cls-1" d="M477.767,42.678c5.064-3.551,5.687-12.548,9.838-17.29A47.365,47.365,0,0,1,504.454,13.7c12.1-4.991,25.651-1.076,31.65,10.465,6.635,12.59-5.07,24.662-19.4,20.427-7.734-2.339-7.168,7.212-4.406,10.866,4.467,5.885,12.389,7.047,19.911,5.87,18.068-2.848,24.892-17.706,22.6-32.007C551.29-3.406,510.091-7.9,487.9,11.666,473.176,24.72,469.508,48.3,477.767,42.678Z"/><path class="cls-1" d="M449.776,51.088c-11.068-.528-39.473,1.115-46.89,9.373-6.275,7.117,1.6,9.956,8.557,7.029,8.581-3.631,16.778-3.79,26.159-4.182,6.358-.267,12.819-.161,19.267-.055,4.588.076,9.171.151,13.707.093,4.764-.062,9.2-.3,13.675,1.389,2.009.763,6.318,4.472,8.879,2.42,6.835-5.542-8.723-12.2-12.451-13.037A158.119,158.119,0,0,0,449.776,51.088Z"/><path class="cls-1" d="M510.541,158.126c-2.5-2.123-7.591-2.1-10.579-3.986-4.313-2.718-6.876-6.707-9.314-10.529-5.353-8.377-11.492-16.8-14.575-25.976-3.2-9.473-6.708-18.639-8.023-28.47-.545-4.1-.651-11.122-4.651-14.046-4.708-3.467-5.8,4.2-6.006,6.023-1.066,6.455,2.684,17.532,4.111,23.932,2.09,9.556,6.14,18.7,9.755,27.918,3.4,8.667,6.918,17.272,15.145,23.86,4.121,3.295,9.215,6.314,15.268,7C504.708,164.212,515.728,162.525,510.541,158.126Z"/><path class="cls-1" d="M428.991,81.227c.063,7.949-2.471,16.867-4.657,24.57-4.251,14.973-8.255,44.081-30.045,49.98-13.719,3.577-1.969,10.028,8.085,7.492,10.776-2.749,16.512-9.5,20.667-17.409,10.2-19.606,9.822-42.27,13.561-63.1,0-.08-.01-.138-.016-.188C436.09,76.057,428.94,72.251,428.991,81.227Z"/><path class="cls-1" d="M447.757,75.693c-7.009-.289-4,21.142-4.1,26.935q-.306,14.212-.6,28.427c-.087,4.265.274,8.719-.563,12.948-.865,4.405-5.065,8.474-5.442,12.8-.618,7.068,15.021,5.924,19.561,3.226,6.025-3.527-1.93-13.733-2.491-18.446C453.6,137.172,454.31,75.938,447.757,75.693Z"/><path class="cls-1" d="M447.457,44.306c16.263-.085,4.842-8.628,5.2-16.779.081-2.009,1.52-25.981-6.4-21-6.2,3.825-2.063,14.717-2.135,20.97C444.067,34.523,432.743,44.222,447.457,44.306Z"/></g></g></svg>