<svg xmlns="http://www.w3.org/2000/svg" viewBox="0 0 810.503 209.033"><defs><style>.cls-1{fill:#c69963;}</style></defs><title>border-5-top</title><g id="Layer_2" data-name="Layer 2"><g id="Capa_1" data-name="Capa 1"><path class="cls-1" d="M431.334,121.141c-22.514,13.323-25.059,55.8-9.349,72.03,8.2,8.473,21.5,14.514,33.1,13.109,15.676-1.9,36.675-13.418,24.893-24.774-.633-.611-3.353,1.777-7.814,4.166-5.452,2.92-13.5,5.84-23.522,3.282-25.33-6.467-16.706-43.738-9.877-50.458,9.881-9.725,23.583-14.043,37.362-13.341,70.082,7.125,98.491,55.7,98.387,63.18-.154,11-18.151,8.661-10.35,16.816,6.494,6.79,19.088,3.977,23.869-3.067a20.156,20.156,0,0,0-1.765-23.538c1.914-.214,5.369,4.166,9.492,8.546,4.821,5.121,10.555,10.242,15.815,8.021,4.573-1.932-.347-14,3.331-14.24,6.186-.4,1.09-8.284-.481-10.179-1.992-2.4-10.113-4.73-13.206-4.856-8.954-.367-6.994-6.358-3.321-5.543,16.139,3.576,28.79,14.845,34.909,18.257,13.15,7.336,17.278-2.19,7.936-11.6-.257-.259-13.626-6.471-7.364-7.285,11.406-1.486,28.808-17.53,9.706-10.762-20.241,7.173-56.759-.874-78.032-11.311C464.071,88.052,439.559,116.274,431.334,121.141Z"/><path class="cls-1" d="M624.48,189.418c8.709,5.751,20.264,9.159,30.213,11.921,27.086,7.523,53.9,8.728,81.63,4.861,14.214-1.981,29.236-7.776,41.46-15.342,7.761-4.8,15.489-9.837,20.775-17.5,1.25-1.813,8.825-19.2.543-19.377-2.231-.047-12.535,16-31.753,25.556-17.567,8.733-35.25,16-55.474,15.1-29.76-.078-60.271-5.379-74.05-10.153C634.466,183.322,612.219,181.319,624.48,189.418Z"/><path class="cls-1" d="M406.686,99.946c.752.028,14.157-49.974,13.941-57.822C420.392,33.574,415.636,0,407.87,0c-10,0-13.414,34.893-13.417,41.586v0h0C394.455,47.878,404.735,99.875,406.686,99.946Z"/><path class="cls-1" d="M475.231,206.324c1.194,3.494,12.033-3.4,13.772-5.009,8-7.384,14.8-16.96,15.243-28.233,0-.021.007-.084.011-.206-.01-4.452-.029-2.411-.028-.9-.576-17.359-16.7-28.883-33.571-25.536-12.076,2.4-24.161,19.516-12.39,30.235,6.9,6.284,12.038,2.981,16.563-.324,4.311-3.146,8.068-6.291,12.268-1.157,3.973,4.857,3.717,13.526.89,18.912C486.991,196.009,474.876,205.287,475.231,206.324Z"/><path class="cls-1" d="M412.016,108.188c3.165,4.185,8.1-15.5,8.862-17.557,5.566-15,21.208-42.027,41.678-33.267,3.677,1.573,4.708,7.528,9.106,4.405,4.377-3.109,6.088-6.251,7.616-11.33,3.315-11.018-11.4-16.973-19.487-17.473-16.812-1.04-33.59,29.557-42.411,50.368C415.436,87.922,408.652,103.738,412.016,108.188Z"/><path class="cls-1" d="M424.931,98.292c-1.506,2.6-8.976,11.268-4.928,14.413s12.726-8.761,15.473-10.993c5.328-4.331,13.932-6.7,20.708-6.793,3.335-.043,6.991,1.325,10.631,2.693,5.618,2.114,11.194,4.227,15.479,1.144,15.329-11.033-8.642-26.4-18.676-26.688C448.368,71.172,432.026,86.05,424.931,98.292Z"/><path class="cls-1" d="M781.762,157.436c13.118,4.849,10.314-10.49,14.458-10.689,14.472-.7,6.285,20.829,9.63,21.838,3.98,1.2,5.735-13.97,3.963-20.417-2.575-9.371-6.929-16.882-18.782-16.51C777.767,131.658,764.937,151.218,781.762,157.436Z"/><path class="cls-1" d="M791.031,131.657c2.479-.078-.514,0,0,0Z"/><path class="cls-1" d="M747.728,166.659c5.467-.191,6.9-4.228,10.905-4.057,3.9.167,9.49,5.392,10.077-3.8.457-7.144-1.765-13.26,1.762-20.111,1.515-2.944,16.025-11.427,16.094-10.967-1.008-6.727-25.533,5.528-27.939,11.889a97.958,97.958,0,0,1-8.232,16.78c-2.191,3.537-11.011,3.42-11.839,5.362C737.14,165.072,746.333,166.837,747.728,166.659Z"/><path class="cls-1" d="M417.854,124.209c5.761-7.513-6.645-8.645-12.228-10.269-7.784,3.631-16.608,1.763-9.913,11.876,1.428,2.159,9.638,20.655,10.686,20.638C407.686,146.433,415.544,127.221,417.854,124.209Z"/><path class="cls-1" d="M406.4,206.052c.592.11,12.188-7.959,12.186-8.163-.273-.973-10.97-23.417-12.186-23.418-.991,0-13.842,22.466-13.836,23.265C392.578,199.26,406.305,206.114,406.4,206.052Z"/><path class="cls-1" d="M650.351,130.433c.552,5.979,7.013,9.213,6.27,16.007-.792,7.235-16.707,13.407-16.709,14.463,0-.157,26.9-5.651,24.251-20.313-.973-5.379-5.438-10.215-3.417-15.757,1.8-4.937-9.59-.83-10.418,4.773l-.018.091C650.321,130.946,650.342,130.816,650.351,130.433Z"/><path class="cls-1" d="M758.839,176.3c-7.279,3.512-24.546,10.988-19.179,10.988,8.259.833,21.27-7.4,28.1-11.532,1-.606,18.158-10.538,11.271-12.175C774.352,162.468,764.11,173.755,758.839,176.3Z"/><path class="cls-1" d="M177.123,159.665c6.263.816-7.107,7.027-7.363,7.285-9.343,9.413-5.214,18.937,7.936,11.6,6.119-3.414,18.769-14.681,34.908-18.259,3.674-.813,5.634,5.177-3.32,5.544-3.094.126-11.214,2.454-13.206,4.856-1.571,1.9-6.667,9.775-.482,10.18,3.679.24-1.242,12.308,3.332,14.239,9.757,4.122,21.152-17.031,25.307-16.567a20.156,20.156,0,0,0-1.765,23.539c4.78,7.043,17.374,9.856,23.868,3.066,7.8-8.154-10.2-5.815-10.349-16.817-.1-7.476,28.3-56.054,98.386-63.18,13.779-.7,27.482,3.617,37.362,13.342,6.829,6.72,15.453,43.991-9.877,50.458-18.216,4.651-29.927-8.806-31.336-7.448-11.781,11.355,9.218,22.878,24.893,24.774,11.606,1.4,24.9-4.635,33.1-13.109,15.709-16.232,13.164-58.707-9.349-72.029-8.226-4.869-32.738-33.09-133.72,16.451-21.274,10.437-57.792,18.483-78.034,11.311C148.315,142.135,165.718,158.18,177.123,159.665Z"/><path class="cls-1" d="M11.4,153.984c-8.282.175-.707,17.565.544,19.377,5.285,7.66,13.013,12.693,20.773,17.5,12.225,7.566,27.248,13.361,41.462,15.343,27.728,3.866,54.543,2.66,81.629-4.862,9.949-2.763,21.5-6.17,30.213-11.921,12.261-8.1-9.985-6.095-13.344-4.931-13.779,4.774-44.29,10.075-74.05,10.153-20.224.9-37.906-6.367-55.474-15.1C23.938,169.986,13.633,153.937,11.4,153.984Z"/><path class="cls-1" d="M306.246,172.876c0,.123.008.185.011.207.447,11.272,7.239,20.848,15.244,28.233,1.739,1.6,12.576,8.5,13.771,5.008.355-1.037-11.76-10.315-12.757-12.214-2.828-5.386-3.083-14.055.89-18.912,8.609-10.524,15.36,13.75,28.83,1.481,11.77-10.72-.314-27.838-12.39-30.235-16.865-3.347-33,8.177-33.571,25.536C306.276,170.465,306.256,168.424,306.246,172.876Z"/><path class="cls-1" d="M338.841,61.769c4.4,3.123,5.429-2.832,9.105-4.406,20.471-8.759,36.113,18.271,41.679,33.268.763,2.053,5.7,21.743,8.862,17.557,3.363-4.45-3.419-20.266-5.364-24.854-8.82-20.811-25.6-51.408-42.411-50.368-8.086.5-22.8,6.456-19.487,17.473C332.754,55.517,334.464,58.66,338.841,61.769Z"/><path class="cls-1" d="M328.21,98.756c7.058,5.08,17.626-3.946,26.109-3.837,6.776.087,15.38,2.462,20.708,6.792,2.747,2.233,11.432,14.134,15.473,11s-3.422-11.818-4.927-14.415c-7.1-12.241-23.437-27.119-38.687-26.223C336.851,72.359,312.88,87.723,328.21,98.756Z"/><path class="cls-1" d="M4.653,168.584C8,167.577-.188,146.052,14.284,146.747c4.144.2,1.34,15.538,14.457,10.689,16.825-6.219,3.995-25.779-9.268-25.779C7.62,131.286,3.266,138.8.69,148.168-1.082,154.615.673,169.784,4.653,168.584Z"/><path class="cls-1" d="M40.032,138.692c3.526,6.851,1.305,12.968,1.761,20.112.587,9.19,6.181,3.964,10.077,3.8,4.007-.17,5.438,3.866,10.906,4.057,1.394.179,10.587-1.587,9.171-4.9-.829-1.942-9.648-1.826-11.838-5.362a97.848,97.848,0,0,1-8.232-16.78c-2.406-6.361-26.932-18.617-27.94-11.89C24.006,127.265,38.516,135.748,40.032,138.692Z"/><path class="cls-1" d="M170.591,160.9c0-1.057-15.918-7.228-16.708-14.463-.743-6.793,5.717-10.028,6.269-16.007.01.383.031.512.041-.736l-.017-.091c-.829-5.6-12.221-9.711-10.42-4.773,2.022,5.543-2.443,10.378-3.416,15.757C143.69,155.251,170.591,160.747,170.591,160.9Z"/><path class="cls-1" d="M70.843,187.286c5.368,0-11.9-7.476-19.179-10.988-5.271-2.542-15.513-13.829-20.189-12.718-6.887,1.636,10.27,11.568,11.271,12.174C49.574,179.886,62.584,188.12,70.843,187.286Z"/></g></g></svg>