<svg xmlns="http://www.w3.org/2000/svg" viewBox="0 0 690.906 232.219"><defs><style>.cls-1{fill:#c69963;}</style></defs><title>border-1-bottom</title><g id="Layer_2" data-name="Layer 2"><g id="Capa_1" data-name="Capa 1"><path class="cls-1" d="M230.672,126.108c-13.2,2.826-24.435-11.614-26.787-23.009-7.695-37.284,22.229-69.087,59.058-68.534a47.487,47.487,0,0,1,40.379,23.723c3.044,5.127,3.516,11.95,10.5,12.386,3.869.242,17.913,1.063,17.832-4.94-.212-15.728-14.821-34.081-27.406-42.457-14.63-9.738-30.971-13.425-48.006-14.568-9.308-.623-19.945,1.665-28.957-1.047-8.059-2.425-11.335,1.208-4.521,7.487,3.314,3.055-13.441,5.313-14.578,5.581-7.214,1.7-14.7,2.34-22.032,3.4-9,1.3-15.33-1.947-22.924-5.812-4.352-2.215-12.279-2.664-10.313,4.211,1.83,6.4-2.454,2.906-5.1.06-4.188-4.5-8.466-10-15.182-10.22a14.112,14.112,0,0,0-9.766,3.816c-4.068,3.633,1.522,5.343,3.724,6.96,2.015,1.48,14.1,11.181,10.739,12.376-11.069,3.937-.858,8.212,6.182,10.4,4.587,1.425,14.055.957,18.7-.787v0a7.769,7.769,0,0,0-2.947,1.692,20.608,20.608,0,0,0,2.941-1.689c-2.174,1.531-3.008,1.875-2.941,1.689-10.207,4.913-23.489,1.357-34.1.817a31.685,31.685,0,0,1-14.369-4.606c-3.792-2.223-7.725-7.544-12.674-6-7.342,2.283,4.585,15.952-10.153,4.3-2.731-2.161-18.382-21.651-7.263-19.11,10.957,2.5,8.8-15.619-.851-17.719C69.191,2.188,63.536,12.5,63.862,21.42c.456,12.43,8.822,20.827,18.745,27.1a47.624,47.624,0,0,0,15.07,6.494c2.279.5,13.495.276,14.135,3.348.468,2.242-4.6,4.583.3,6.152Q116.582,66,121.164,67.1c5.979,1,11.66-.572,17.249-2.561a285.107,285.107,0,0,0,34.156-14.559C185.75,43.2,198.3,35.188,212.117,29.7c2.349-.932,30.627-9.212,26.867-3.248-3.839,6.094-25.71,7.55-32.283,10.334-10.175,4.312-21.283,10.652-28.869,18.833-3.407,3.675-6.437,8.2-7.184,13.259-.737,4.977,2.642,10,1,14.788-2.984,8.7,14.423-3.2,14.656-5.369.112,2.018-6.363,14.785-6.685,17.08-1.227,8.759,2.645,15.612,7.276,22.629,7.2,10.909,4.333-2.753,10.28-2.5,2.522.109,7.319,11.083,9.911,13.229,5.06,4.186,12.972,7.255,19.568,5.637C230.432,133.452,238.285,124.477,230.672,126.108Z"/><path class="cls-1" d="M550.106,45.042c2.829-.062-1.08-.041-2.043-.02C547.576,45.032,547.841,45.043,550.106,45.042Z"/><path class="cls-1" d="M508.114,92.5c-.233-1.785-6.455-14.474-5.665-15.152,1.166-1,3.047.947,5.144,2.9,2.64,2.454,5.624,4.907,7.966,1.479,4.487-6.57.8-19.285-3.059-25.111-4.124-6.227-9.99-10.993-16.344-14.8a141.313,141.313,0,0,0-25.2-11.442c-6.99-2.5-15.3-1.736-21.934-4.686-4.3-1.915.51-4.641,3.2-4.585a64.943,64.943,0,0,1,14.753,2.06c9.472,2.424,18.335,6.808,27,11.227,16.988,8.661,34.112,17.325,51.7,24.723,9.358,3.938,16.432,6.492,26.139,2.291,2.332-1.009,7.327-1.869,4.072-5.521-.9-1.016-1.91-2.779.309-3.367,6.5-1.721,13.152-.518,19.974-2.971,7.783-2.8,14.351-8.223,19.9-14.262,9-9.787,12.456-38.973-8.818-34.9C601.2,1.549,595.3,10.774,600.662,15.757c2.06,1.916,4.346,1.772,6.207,1.628,2.439-.189,4.149-.378,3.655,4.082-.837,7.563-10.36,15.005-16.363,18.412-4.918,2.79-1.307-4.1-2.727-5.738-4.454-5.122-14.854,4.829-18.519,6.88-7.339,4.109-14.72,3.841-22.809,4.021-5.973,0-12.171.508-17.967-1.308-.011,0-4.625-1.928-2-2.5a35.1,35.1,0,0,1,6.139.212c7.751.555,19.445,1.111,18.2-6.292-.371-2.208-7.21-2.644-4.138-5.325,3.978-3.473,7.027-7.943,11.506-10.847,9.06-5.879-9.046-9.557-14.371-6.285-4.158,2.556-7.814,6.569-11.458,9.8-3.56,3.158-1.436-6.717-2.369-7.76-3.4-3.8-21.428,6.057-26.584,6.45-11.707.894-22.916-4.032-34.508-4.252-7.081-.134-12.479-.478-6.326-5.6,1.982-1.652,4.79-7.88-.346-7.857-4.075.017-8.929,3.748-13.245,4.384-12.376,1.823-25,.466-37.411,2.578C392.445,14.312,373.385,25.3,362.035,46c-3.231,5.891-12.628,21.959-1.648,23.6,7.541,1.125,17.632,2.114,20.351-6.269,6.387-19.694,28.627-31.25,48.461-30.663,35.514,1.051,62.772,32.116,52.644,67.783-2.52,8.871-9.047,18.642-18.148,21.754-4.179,1.427-16.615,2.039-5.729,7.4,7.035,3.461,15.132.846,20.957-3.645,2.554-1.97,9.607-15.19,10.989-15.083,1.75.134,5.765,14.122,9.233,4.729C502.327,106.978,509.473,102.921,508.114,92.5Z"/><path class="cls-1" d="M450.082,147.088c-1.964-1-11.119,7.455-14.611,8.3a58.947,58.947,0,0,1-21.938.96c-17.893-2.5-32.988-12.59-45.722-24.909-4.457-4.312-11.657-16.213-17.807-17.583-2.244-.5-11.635.643-13.319,1.9-13.243,9.868-21.974,25.724-36.649,33.754-13.988,7.652-32.284,12.2-47.971,8.049-1.654-.437-16.965-8.07-15.992-3.086.937,4.8,6.615,9.7,10.621,11.962,6.852,3.863,15.393,4.087,22.977,2.816,1.641-.275,13.322-4.59,13.808-3.616-.113-.227-3.925,2.775-6.458,5.779-2.484,2.941-3.74,5.884.91,5.788,1.16-.024,2.291.008,3.4.04,3.068.088,6.008.178,9.1-.911,1.633-.573,7.225-4.693,8.709-3.836,1.979,1.141-1.514,7.206,3.674,5.955A30.717,30.717,0,0,0,313.4,174c8-5.62,12.592-17.033,16.175-25.765,5.118-12.469,10.166-3.7,5.706,5.6-4.97,10.365-9.253,20.578-13.679,31.168-3.167,7.575,1.4,23.194,9.209,10.948,2.416-3.79,3.976,5.314,7.59,5.956,7.44,1.325,14.558-.622,17.661-7.095.888-1.849,2.69.316,4.741,2.482,2.183,2.3,4.648,4.611,6.592,2.075,5.033-6.559-1.471-19.713-4.169-25.734-4.336-9.676-10.858-18.657-13.98-28.8a3.3,3.3,0,0,1,4.934-3.7c3.247,1.977,4.405,6.555,5.835,9.76,3.6,8.076,7.7,17.25,15.408,22.227,2.386,1.542,9.877,5.722,12.639,3.082.966-.923.227-5.628,2.548-4.915,8.468,2.6,13.806,2.893,22.69,3.4,4,.228,2.486-2.036.022-4.3a36.463,36.463,0,0,0-5.71-4.3c-1.44-1.972,5.537-1.371,10.979-.77,2.869.317,5.313.632,5.873.572,6.357.827,14.991-1.307,19.95-5.465C446.264,158.873,454.224,149.207,450.082,147.088Z"/><path class="cls-1" d="M269.019,97.228c14.874,13.331,30.8-8.564,22.168-22.8-7.947-13.1-25.519-15.7-37.943-6.868-27.656,19.656-13.571,73.714,22.669,70.322,18.222,1.127,34.608-8.024,45.334-22.183,4.92-6.5,9.191-13.638,10-21.924.708-7.251-12.89-4.137-17.139-4.372-7.458-.412-8.9,10.976-12.994,15.446a30.186,30.186,0,0,1-21.733,9.416c-6.958.061-15.042-3.077-17.669-10.047C258.417,95.473,261.732,90.7,269.019,97.228Z"/><path class="cls-1" d="M403.383,111.756c-7.943-1.5-15.568-5.053-19.9-12.128-5.4-8.8-4.319-10.152-15.491-10.165,1.313,0,.72,0,.084,0h-.589c-9.252-.009-13.275.059-9.317,10.41A63.174,63.174,0,0,0,371.9,121.516c11.682,11.869,28.5,15.467,44.656,12.952,33.513-5.221,47.191-58.435,12.145-71.993-13.827-5.35-34.252,1.632-35.22,18.519a16.7,16.7,0,0,0,10.824,16.9c8.576,3.12,12.227-3.173,17.6-8.042,4.419-4.008,2.76,10.76.96,13.208C418.977,108.346,409.973,113,403.383,111.756Z"/><path class="cls-1" d="M367.339,89.462Z"/><path class="cls-1" d="M147.579,78.186a123.477,123.477,0,0,1,15.44-15.205c2.292-1.814-.026-4.5-2.294-2.781-18.99,14.408-35.733,33.64-58.377,42.4-5.046,1.953-30.9,2.874-26.735,8.965,3.019,4.414,10.047,5.651,14.763,3.887,2.518-.943,3.43,1.6.939,2.566-18.707,7.223-53.327,17.97-69.053-.693-1.8-2.136-8.308-14.451-1.475-15.448,3.957-.578,6.31,6.692,12.134,5.44,9.323-2,13.341-12.505,9.4-20.878-5.338-11.323-20.355-11.351-29.883-5.8C3.358,85.933-.185,95.018.007,105.032c0,26.6,24.723,37.173,48.418,35.887,26.737-1.451,51.163-12.784,70.525-31.175C129.235,99.974,138.188,88.786,147.579,78.186Z"/><path class="cls-1" d="M645.7,94.122c4.711,10.632,17.442,9.219,21.161-.756,2.1-5.641,4.432,6.754,4.411,7.117a19.417,19.417,0,0,1-6.167,13.032c-8.141,7.593-23.647,9.672-34.151,7.836-3.26-.57-35.117-5.725-34.028-9.336-.11.362,22.864-2.006,15.986-9.277-1.374-1.452-5.438-.972-9.223-.491a25.841,25.841,0,0,1-6.349.383c-6.007-1.131-11.391-4.334-17.111-6.338-9.97-3.492-18.411-10.892-26.348-17.638-4.94-4.2-15.279-14.752-21.607-16.255-4.992-1.186,1.884,5.436,2.287,5.8,4.739,4.533,8.881,9.78,13.282,14.636,8.409,9.279,16.954,18.438,26.513,26.557,19.172,16.286,46.245,26.656,71.656,25.2,24.643.793,55.086-21.172,41.569-49.175C677.675,64.9,634.347,68.508,645.7,94.122Z"/><path class="cls-1" d="M595.37,173.873c-1.417-1.216-3.643-.24-5.883.735-1.715.746-3.436,1.492-4.811,1.259a37.642,37.642,0,0,1-10.293-3.052c-18.443-9.01-25.158-31.076-30.555-48.861-3.308-10.9-6.56-21.825-10.383-32.559-.706-1.986-10.2-27.263-12.465-19.72-2.108,7.006,6.389,20.605,7.778,27.726,2.177,11.151,2.323,22.222,2.21,33.537a121.428,121.428,0,0,1-4.834,34.11c-2.4,8.116-9.556,17.472-9.975,25.807-.174,3.466,6.248,20.338,10.552,12.456,5.416-9.915,8.229-21.221,10.683-32.189.392-1.748,2.739-19.868,4.02-16.661,3.383,8.472,4,15.64,10.556,22.817,1.585,1.734,7.154,8.933,10.11,5.618,2.192-2.459-1.526-7.406.508-8.834-1.72,1.207,17.716,8.771,20.033,9.138C585.7,184.728,602.472,179.968,595.37,173.873Z"/><path class="cls-1" d="M125.692,186.09v0C125.693,186.135,125.693,186.145,125.692,186.09Z"/><path class="cls-1" d="M155.982,123.564c.266-5.9,11.3-49.545,8.284-50.116-7-1.325-17.489,43.965-18.95,49.845-4.4,17.7-8.244,35.938-22.347,48.764-5.545,5.044-13.628,10.733-21.578,9.308-4.125-.739-12.718-1.42-5.553,5.194,4.811,4.441,12.083,5.2,18.035,3,3.36-1.245,11.8-10.732,11.819-3.483v.015c.06,10.016,9.82-.528,12.325-3.645,2.3-2.857,8.922-25.379,8.943-25.379-.237-.006,10.838,44.99,12.95,49.805,4.493,10.245,9.1,2.38,11.143-4.894,1.874-6.664-3.4-13.828-5.684-19.86A147.034,147.034,0,0,1,155.982,123.564Z"/><path class="cls-1" d="M603.762,142.845c-12.237,1.409-23.175-7.458-31.358-15.463-4.857-4.751-39.721-53.63-40.72-53.061-1.337.759,21.555,53.485,24.214,58.576,2.95,5.647,10.673,16.911,17.857,17.492,6.757.547-1.039-9.827.9-11.084.135-.087,19.864,9.914,23.211,10.388C605.665,149.182,619.476,141.036,603.762,142.845Z"/><path class="cls-1" d="M112.26,151.289a1.777,1.777,0,0,0-.07.231,2.626,2.626,0,0,0,.025.755c.687,7.173,14.53-6.345,15.743-7.983,4.2-5.676,6.7-12.421,9.156-18.972,1.431-3.812,17.258-41.327,15.418-42.114-3.263-1.4-22.779,33.386-25.736,37.291a91.222,91.222,0,0,1-31.159,25.624c-3.685,1.906-7.746,3.568-12,2.688a5.9,5.9,0,0,0-6.691-1.244c-4.526,6.086,13.747,7.157,15.573,6.845,7.119-1.219,12.868-4.316,18.6-8.517C114.963,143.078,112.71,149.853,112.26,151.289Z"/><path class="cls-1" d="M375.208,72.811a31.371,31.371,0,0,1-3.614.288c-18.368-.237-36.354.276-54.673,1.644a40.46,40.46,0,0,1-5.013-.035c-5.558-.273-10.293-.547-9.994,7.24.245,6.376,7.984,4.251,12,4.168,16.984-.355,34.006-.993,50.979-1h.03c1.526,0,3.228.134,4.978.269,7.314.564,15.465,1.128,15.085-8.188C384.765,71.817,379.593,72.314,375.208,72.811Zm-11.428,12.3h0Z"/><path class="cls-1" d="M182.828,157.653c1.413-4.164-4.164-12.708-5.621-16.551-5.006-13.2-7.262-26.437-5.5-40.573.114-.918,2.377-6.995-.456-7.668a2.17,2.17,0,0,0-2.641,2.2c-2.065,5.438-2.672,10.846-2.371,18.625A80.324,80.324,0,0,0,168.49,133.3c1.465,6.219,3.9,12.14,5.883,18.2C175,153.427,180.242,165.282,182.828,157.653Z"/><path class="cls-1" d="M506,145.625c-.932,1.868-6.031,10.112.535,9.671,7.645.428,11.85-26.561,12.731-32.1.472-2.966,4.138-36.682-3.338-34.469-2.745.812,1.306,14.667,1.2,17.464-.219,5.743-1.891,11.273-3.363,16.783C511.675,130.8,509.641,138.333,506,145.625Z"/><path class="cls-1" d="M348.477,204.442c-2.36-.491-14.027-.578-12.894,3.812,1.241,4.811,6.4,6.735,10.838,6.485C353.306,214.351,358.744,204.442,348.477,204.442Z"/><path class="cls-1" d="M343.949,106.143c8.395.155,8.918-13.368.426-13.386C336.061,92.739,335.3,105.984,343.949,106.143Z"/><path class="cls-1" d="M504.49,158.583h0c-4.3-.016-6.413,3.335-6.422,6.687s2.107,6.733,6.264,6.686C512.068,171.869,512.911,158.616,504.49,158.583Z"/><path class="cls-1" d="M177.58,169.608c0-.258,0-.47,0-.572C177.583,169.117,177.582,169.3,177.58,169.608Z"/><path class="cls-1" d="M177.578,170.014c0,.273,0,.535,0,.71C177.576,170.58,177.576,170.356,177.578,170.014Z"/><path class="cls-1" d="M177.579,169.958c0-.1,0-.2,0-.3,0,.1,0,.18,0,.3v.006c-.042,8.6,12.974,8.394,12.928.009C190.459,161.512,177.631,161.489,177.579,169.958Z"/><path class="cls-1" d="M338.876,225.794c-.283,8.636,12.777,8.46,12.9.112C351.9,217.251,339.144,217.614,338.876,225.794Z"/></g></g></svg>