<svg xmlns="http://www.w3.org/2000/svg" viewBox="0 0 810.503 209.033"><defs><style>.cls-1{fill:#c69963;}</style></defs><title>border-5-bottom</title><g id="Layer_2" data-name="Layer 2"><g id="Capa_1" data-name="Capa 1"><path class="cls-1" d="M633.38,49.368c-6.262-.815,7.107-7.026,7.364-7.285,9.342-9.412,5.214-18.937-7.936-11.6-6.119,3.413-18.77,14.681-34.909,18.257-3.673.815-5.633-5.176,3.321-5.542,3.093-.127,11.214-2.455,13.206-4.857,1.571-1.895,6.667-9.774.481-10.178-3.678-.241,1.242-12.309-3.331-14.24-5.26-2.221-10.994,2.9-15.815,8.021-4.123,4.379-7.578,8.759-9.492,8.545a20.156,20.156,0,0,0,1.765-23.538c-4.781-7.044-17.375-9.856-23.869-3.067-7.8,8.155,10.2,5.816,10.35,16.817.1,7.476-28.3,56.055-98.387,63.179-13.779.7-27.481-3.616-37.362-13.34-6.829-6.721-15.453-43.992,9.877-50.458,10.019-2.558,18.07.362,23.522,3.281,4.461,2.389,7.181,4.778,7.814,4.167,11.782-11.357-9.217-22.877-24.893-24.775-11.605-1.4-24.9,4.636-33.1,13.11-15.71,16.232-13.165,58.706,9.349,72.03,8.225,4.867,32.737,33.089,133.72-16.453C586.327,61,622.845,52.957,643.086,60.13,662.188,66.9,644.786,50.854,633.38,49.368Z"/><path class="cls-1" d="M799.1,55.05c8.282-.175.707-17.565-.543-19.377-5.286-7.66-13.014-12.693-20.775-17.5-12.224-7.566-27.246-13.362-41.46-15.343C708.594-1.033,681.779.172,654.693,7.7c-9.949,2.762-21.5,6.169-30.213,11.92-12.261,8.1,9.986,6.1,13.344,4.932,13.779-4.774,44.29-10.076,74.05-10.153,20.224-.9,37.907,6.367,55.474,15.1C786.566,39.047,796.87,55.1,799.1,55.05Z"/><path class="cls-1" d="M406.686,109.087c-1.951.072-12.231,52.069-12.233,58.356h0v0c0,6.694,3.418,41.585,13.417,41.586,7.766,0,12.522-33.573,12.757-42.123C420.843,159.061,407.438,109.059,406.686,109.087Z"/><path class="cls-1" d="M504.257,36.157c0-.121-.007-.184-.011-.206C503.8,24.679,497.007,15.1,489,7.719c-1.739-1.605-12.578-8.5-13.772-5.009-.355,1.037,11.76,10.314,12.758,12.214,2.827,5.386,3.083,14.054-.89,18.911-4.2,5.134-7.957,1.989-12.268-1.157-4.525-3.3-9.663-6.608-16.563-.323-11.771,10.719.314,27.838,12.39,30.234,16.866,3.347,33-8.177,33.571-25.536C504.228,38.568,504.247,40.61,504.257,36.157Z"/><path class="cls-1" d="M471.662,147.265c-4.4-3.124-5.429,2.832-9.106,4.4-20.47,8.76-36.112-18.27-41.678-33.266-.763-2.054-5.7-21.743-8.862-17.557-3.364,4.45,3.42,20.265,5.364,24.853,8.821,20.811,25.6,51.408,42.411,50.368,8.087-.5,22.8-6.455,19.487-17.473C477.75,153.516,476.039,150.374,471.662,147.265Z"/><path class="cls-1" d="M482.294,110.277c-4.285-3.083-9.861-.97-15.479,1.144-3.64,1.369-7.3,2.736-10.631,2.693-6.776-.087-15.38-2.461-20.708-6.792-2.747-2.233-11.432-14.134-15.473-10.994s3.422,11.818,4.928,14.414c7.1,12.242,23.437,27.119,38.687,26.223C473.652,136.675,497.623,121.31,482.294,110.277Z"/><path class="cls-1" d="M805.85,40.449c-3.345,1.008,4.842,22.532-9.63,21.837-4.144-.2-1.34-15.537-14.458-10.689-16.825,6.219-3.995,25.779,9.269,25.779,11.853.371,16.207-7.139,18.782-16.51C811.585,54.418,809.83,39.25,805.85,40.449Z"/><path class="cls-1" d="M791.031,77.376c-.514,0,2.479.079,0,0Z"/><path class="cls-1" d="M770.472,70.342c-3.527-6.852-1.3-12.968-1.762-20.112-.587-9.191-6.181-3.965-10.077-3.8-4.007.171-5.438-3.865-10.905-4.057-1.395-.178-10.588,1.587-9.172,4.9.828,1.942,9.648,1.826,11.839,5.362a98.03,98.03,0,0,1,8.232,16.78c2.406,6.362,26.931,18.617,27.939,11.89C786.5,81.768,771.987,73.286,770.472,70.342Z"/><path class="cls-1" d="M395.713,83.218c-6.7,10.113,2.129,8.245,9.913,11.876,5.583-1.624,17.989-2.757,12.228-10.27C415.544,81.812,407.686,62.6,406.4,62.58,405.351,62.563,397.141,81.059,395.713,83.218Z"/><path class="cls-1" d="M406.4,2.982c-.094-.062-13.821,6.792-13.836,8.315-.006.8,12.845,23.265,13.836,23.265,1.216,0,11.913-22.445,12.186-23.417C418.587,10.94,406.991,2.872,406.4,2.982Z"/><path class="cls-1" d="M639.912,48.131c0,1.056,15.917,7.228,16.709,14.462.743,6.794-5.718,10.028-6.27,16.007-.009-.383-.03-.512-.041.737l.018.09c.828,5.6,12.22,9.711,10.418,4.774-2.021-5.543,2.444-10.378,3.417-15.758C666.813,53.782,639.912,48.287,639.912,48.131Z"/><path class="cls-1" d="M739.66,21.748c-5.367,0,11.9,7.475,19.179,10.988,5.271,2.542,15.513,13.829,20.189,12.718,6.887-1.637-10.269-11.569-11.271-12.175C760.93,29.147,747.919,20.914,739.66,21.748Z"/><path class="cls-1" d="M379.17,87.892c22.513-13.323,25.058-55.8,9.349-72.029-8.2-8.474-21.5-14.514-33.1-13.109-15.675,1.9-36.674,13.418-24.893,24.774,1.409,1.358,13.12-12.1,31.336-7.449,25.33,6.467,16.706,43.738,9.877,50.459-9.88,9.724-23.583,14.043-37.362,13.341-70.081-7.126-98.49-55.7-98.386-63.18.153-11,18.15-8.662,10.349-16.816-6.494-6.79-19.088-3.977-23.868,3.066a20.154,20.154,0,0,0,1.765,23.538c-4.155.465-15.55-20.688-25.307-16.567-4.574,1.932.347,14-3.332,14.24-6.185.405-1.089,8.284.482,10.179,1.992,2.4,10.112,4.731,13.206,4.857,8.954.366,6.994,6.357,3.32,5.543-16.139-3.577-28.789-14.845-34.908-18.258-13.15-7.335-17.279,2.189-7.936,11.6.256.258,13.626,6.47,7.363,7.285-11.4,1.485-28.808,17.53-9.707,10.761,20.242-7.172,56.76.875,78.034,11.311C346.432,120.982,370.944,92.76,379.17,87.892Z"/><path class="cls-1" d="M186.023,19.616c-8.709-5.751-20.264-9.159-30.213-11.922-27.086-7.522-53.9-8.728-81.629-4.861C59.967,4.814,44.944,10.61,32.719,18.176c-7.76,4.8-15.488,9.837-20.773,17.5C10.7,37.485,3.12,54.875,11.4,55.049c2.231.047,12.536-16,31.753-25.555,17.568-8.733,35.25-16,55.474-15.1,29.76.079,60.271,5.38,74.05,10.154C176.038,25.711,198.284,27.714,186.023,19.616Z"/><path class="cls-1" d="M335.272,2.71c-1.195-3.495-12.032,3.4-13.771,5.008-8,7.384-14.8,16.961-15.244,28.232,0,.023-.006.085-.011.208.01,4.452.03,2.41.028.895.576,17.359,16.706,28.883,33.571,25.536,12.076-2.4,24.16-19.514,12.39-30.234-13.47-12.269-20.221,12-28.83,1.48-3.973-4.857-3.718-13.525-.89-18.911C323.512,13.024,335.627,3.747,335.272,2.71Z"/><path class="cls-1" d="M398.487,100.846c-3.165-4.187-8.1,15.5-8.862,17.557-5.566,15-21.208,42.026-41.679,33.267-3.676-1.574-4.707-7.528-9.105-4.405-4.377,3.109-6.087,6.251-7.616,11.329-3.315,11.018,11.4,16.973,19.487,17.473,16.813,1.041,33.591-29.557,42.411-50.368C395.068,121.111,401.85,105.3,398.487,100.846Z"/><path class="cls-1" d="M385.573,110.742c1.5-2.6,8.975-11.269,4.927-14.414s-12.726,8.762-15.473,10.994c-5.328,4.33-13.932,6.7-20.708,6.793-8.483.109-19.051-8.918-26.109-3.837-15.33,11.033,8.641,26.4,18.676,26.688C362.136,137.862,378.476,122.984,385.573,110.742Z"/><path class="cls-1" d="M28.741,51.6c-13.117-4.848-10.313,10.491-14.457,10.69C-.188,62.981,8,41.456,4.653,40.449.673,39.25-1.082,54.418.69,60.865c2.576,9.372,6.93,16.883,18.783,16.511C32.736,77.376,45.566,57.816,28.741,51.6Z"/><path class="cls-1" d="M62.776,42.375c-5.468.19-6.9,4.227-10.906,4.057-3.9-.167-9.49-5.392-10.077,3.8-.456,7.144,1.765,13.261-1.761,20.111-1.516,2.944-16.026,11.428-16.095,10.968,1.008,6.727,25.534-5.528,27.94-11.889a97.821,97.821,0,0,1,8.232-16.781c2.19-3.536,11.009-3.42,11.838-5.362C73.363,43.962,64.17,42.2,62.776,42.375Z"/><path class="cls-1" d="M160.152,78.6c-.552-5.979-7.012-9.213-6.269-16.006.79-7.236,16.707-13.406,16.708-14.463,0,.156-26.9,5.651-24.251,20.312.973,5.379,5.438,10.215,3.416,15.758-1.8,4.937,9.591.83,10.42-4.774l.017-.09C160.183,78.089,160.162,78.218,160.152,78.6Z"/><path class="cls-1" d="M51.664,32.735c7.28-3.511,24.547-10.988,19.179-10.988-8.259-.833-21.269,7.4-28.1,11.532-1,.606-18.158,10.539-11.271,12.174C36.151,46.565,46.393,35.278,51.664,32.735Z"/></g></g></svg>