<svg xmlns="http://www.w3.org/2000/svg" viewBox="0 0 947.759 231.849"><defs><style>.cls-1{fill:#c69963;}</style></defs><title>border-2-bottom</title><g id="Layer_2" data-name="Layer 2"><g id="Capa_1" data-name="Capa 1"><path class="cls-1" d="M304.038,169.4c10.694-7.224,22.976-11.183,35.066-15.222,27.077-9.048,55.587-8.814,82.631-17.7,13.037-4.282,22.857-13.979,32.065-23.323,3.035-3.081,21.6-30.86,10.834-31.455-10.688-.591-9.319-3.58-16.321,5.6a102.386,102.386,0,0,1-13.258,14.72c-10.239,9-30.483,11.253-38.913,11.06-16.195-.37-38.489-3.36-50.244-14.916-5.244-5.156-9.653-12.224-12.794-18.894-8.035-17.069,3.456-61.341,17.961-57.14,2.6.754,7.825,3.194,10.019.486,1.873-2.311-2.433-6.1-4.007-7.112-5.353-3.452-11.562-2.78-17.269-2.077-8.383,1.034-14.246,9.405-18.038,16.085-1.78,3.135-4.406,18.555-8.542,16.71-9.2-4.1-9.851,9.882-9.9,16.784s3.233,12.471,7.539,17.8A63.522,63.522,0,0,0,321.052,91.1c2.4,1.875,8.187,4.714,8.321,8.388.257,7.055-12.152-4.1-13.728-4.871-7.1-3.457-13.182.219-9.2,7.6,3.47,6.431,7.759,12.476,14.054,16.412,24.712,15.454,58.221,4.154,84.939,3.858,4.547-.051,4.381,5.116,1.48,7.18-2.545,1.813-6.3,1.867-9.233,2.488-6.933,1.463-13.639,1.019-20.736,1.325-13.333.577-26.933-3.736-39.981-3-11.727.666-26.386-.216-33.465,12.215-3.723,6.538,5.256,5.292,5.688,9.372.3,2.847-10.607,6.32-12.5,7.812-10.4,8.19-15.906,20.585-10.607,33.328,1.5,3.6,4.728,14.774,10.589,12.977,2.591-.8,13.825-3.082,6.818-7.559C291.4,190.9,292.54,177.168,304.038,169.4Z"/><path class="cls-1" d="M655.962,160.193c-4.374-3.78-9.152-4.42-14.162-6.846-4.117-1.992,8.761-5.681,9.369-6.189,4.934-4.126-7.755-12.3-10.55-13.929-5.788-3.37-21.954-3.6-33.03-1.457-7.34,1.417-14.78,1.432-22.223,1.638-8.2.225-32.936,3.64-37.851-5.772-3.967-7.6,11.181-4.019,12.868-3.691,6.3,1.227,14.015,2.613,20.854,2.545,15.753,0,31.533.293,46.3-6.313,3.552-1.591,27.539-18.041,20.058-23.672-3.35-2.52-6.662-.84-9.848.841-2.27,1.2-4.476,2.394-6.586,2.072-6.108-.933,4.563-9.6,5.706-10.7,7.576-7.3,18.918-25,12.684-36.189-1.308-2.35-1.3-7.7-3.965-8.975-1.169-.558-2.263-.069-3.343.42s-2.119.968-3.211.44c-1.713-.827-4.169-11.75-5.661-14-5.135-7.736-22.47-19.409-31.453-10.447-6.026,6.013,9.155,5.336,11.683,6.92,5.5,3.447,9.442,10.237,11.372,16.245,4.052,12.624,1.5,28-4.845,39.549-14.054,25.545-50.006,35.756-76.743,29-14.854-3.754-27.322-11.109-36.873-23.238-4.232-5.376-4.978-10.283-12.765-7.948-8.34,2.5-9.462,5.19-5.6,12.92,12.9,25.808,35.223,40.284,61.927,48.65,12.889,4.038,27,4.582,40.338,5.711,18.213,1.541,50.724,16.24,55.433,19.626,5.33,3.83,10.462,8.99,11.52,15.776,1.054,6.763-5,9.1-5.5,14.538-.5,5.409,8.993.529,10.42-.782C674.065,186.113,666.372,169.189,655.962,160.193Z"/><path class="cls-1" d="M566.5,169.361c-4.649,3.126-9.8,6.274-15.654,5.735-24.808-2.288-40.388-25.367-55.363-42.588-2.677-3.078-6.194-6.228-10.35-7.037a11.322,11.322,0,0,0-5.038.559,13.038,13.038,0,0,1-4.553.639c-7.838-.754-11.246-1.383-17.034,4.861-9.738,10.506-17.1,22.583-27.616,32.536-9.844,9.317-24.122,16.326-37.57,10.991-3.524-1.4-7.543-9.73-10.72-9.689-5.45.071-3.4,10.562-2.291,13.025,3.1,6.881,11.249,9.954,17.674,12.3,2.986,1.093,6.095.657,9.154.221a29.756,29.756,0,0,1,5.538-.45,26.088,26.088,0,0,0,5.342-.271c3.63-.542,4.091-1.081,7.277,5.161,4.09,8.015,11.555,1.36,16.737-2.181,9.251-6.319,11.263-24.9,16.278-37.181,1.355-3.316,9.867-11.582,10.739-3.305.514,4.876-4.686,10.6-6.665,14.735-3.031,6.337-9.374,14.114-10.222,21.131-.555,4.6-.594,15.763,2.37,19.579.866,1.115,2.746.875,4.514.635,2.072-.28,3.99-.561,3.945,1.335-.139,5.78,1.047,9.407,5.483,14.185,5.422,5.838,7.668,11.628,14.231,3.663,3.65-4.428,12.643-11.182,7.139-17.163-4.365-4.745,4.134-1.769,5.447-1.561,4.978.788,6.26-10.163,6.665-13.3,1.911-14.819-13.352-28.376-18.035-41.364-2.593-7.193,8.1-6.551,10.015.147,1.879,6.569,4.158,12.661,6.662,19,2.226,5.633,6.01,12.823,10.709,16.94a53.587,53.587,0,0,0,13.142,8.054c5.419,2.4,4.607-6.825,7-8.512,1.824-1.283,5.564-.529,9.206.226,2.713.561,5.373,1.123,7.148.842,6.345,0,11.04.612,16.06-3.806,4.45-3.918,11.256-9.555,10.912-16.069C574.308,162.37,570.554,166.637,566.5,169.361Z"/><path class="cls-1" d="M719.472,38.14c.084-1.05.112-2.1-.145-.627C719.189,40.669,719.371,39.4,719.472,38.14Z"/><path class="cls-1" d="M803.93,93.293c-2.154-5.412-5.313-8.889-9.886-12.665-2.54-2.1-13.851-5.449-9.707-9.51,5.544-5.432,7.072-8.509-1.972-10.372-15.177-3.126-26.909-.2-38.688,9.723-2.231,1.88-10.706,11.616-14.045,7.039-2.677-3.67,6.987-8.882,9.016-9.861,4.957-2.387,9.311-5.908,11.319-11.184,2.022-5.314-11.068-5.388-14.063-5.451-5.46-.116-10.467,5.055-14.4,8.293-3.161,2.607-8.145,7.127-10.4,10.471a75.132,75.132,0,0,1-11.56,13.778c-2.519,2.358-4.737-1.778-3.949-3.844,1.066-2.795,4.4-5.27,6.393-7.361,9.545-10,16.711-20.6,17.338-34.835.925-5.3-3.807-12.316-8.284-14.9-2.324-1.343-11.777-3.095-7.636,2.467,8.041,10.8,2.94,24.169-4.281,33.644a140.194,140.194,0,0,1-31.293,30.347c-5.766,4.1-10.831,6.512-14.491,12.585-2.22,3.685-9.6,12.308-9.853,16.155-.286,4.3,13.931-1.872,15.788-2.535,6.821-2.43,13.413-5.448,20.233-7.874,15.111-5.376,30.279-10.963,45.818-14.972,23.874-6.16,53.34-16.543,74.462,3.081C804.567,99.951,806.353,99.383,803.93,93.293Z"/><path class="cls-1" d="M308.476,114.416c-2.409-4.931-6.8-8.522-8.326-14.115-1.269-4.666-9.533-7.4-13.49-9.433C280.719,87.815,276.233,82.79,271.729,78c-7.894-8.4-18.364-15.9-22.911-27.207-2.388-5.943-4.585-11.13-2.017-17.5.854-2.124,9.246-11.356,2.377-11.618-12.2-.465-18.066,14.544-15.32,24.536,3.526,12.837,11.946,23.989,21.879,32.861.614.549,4.343,4.8.544,4.716-3.163-.07-6.4-3.79-8.651-5.589-5.8-4.642-10.275-10.349-15.516-15.591-3.75-3.75-9.642-11.887-15.742-11.442-3.373.247-15.371-2-15.34,3.777C201.064,60.9,209.6,63.715,213.81,66c1.355.734,13.147,11.811,5.89,9.908-12.66-3.321-20.768-19.02-35.651-17.841-2.309-.234-17.642,3.557-18.6,5.74-1.448,3.3,5.2,11.37,1.462,12.6-3.684,1.211-26.18,18.992-18.282,20.518,3.294.635,8.977-6.833,11.978-8.249,6.555-3.1,14.343-5.524,21.66-4.815,6.713.651,13.028.519,19.771,1.407,7.385.972,14.886,3.47,22.016,5.546C248.738,98,273.991,103.2,297.122,114.559,298.7,115.334,311.238,120.07,308.476,114.416Z"/><path class="cls-1" d="M204.71,48.138c17.18,1.774-7.989-15.163-11.57-17.249C150.9,6.281,103.253-6.337,54.658,3.176c-13.1,2.566-25.336,6.963-37.69,12.229-5.674,2.418-11.483,5.4-15.855,9.836-3.448,3.5,2.04,3.848,3.972,4.769,8.493,4.048,10.55,1.746,18.264-3.163a87.447,87.447,0,0,1,17.1-8.622c9.6-3.473,24.3-10.347,34.735-8.99,1.737,0,9.772.857,4.234,3.181C74.736,14.382,67,18.139,64.173,22.578c-2.918,4.588,8.38,3.527,5.793,7.729C67.537,34.254,67,40.125,67.757,44.57c.875,5.127,2.9,10.789,8.942,11.191,8,.533,2.979-6.751,2.917-10.791-.175-11.231,9.864-20.721,20.565-22.509,23.838-3.981,52.46,1.928,74.237,12.4C184.376,39.646,193.493,46.981,204.71,48.138Z"/><path class="cls-1" d="M931.976,15.318A151.452,151.452,0,0,0,896.4,4.045C883.6,1.552,870.071,2.2,857.1,1.077c-9.783-.844-21.253,1.311-30.72,3.681a221.349,221.349,0,0,0-57,23.405c-6.972,4.072-14.167,7.739-21.3,11.525-1.994,1.06-9.839,6.5-2.265,6.762,12.517.428,20.994-6.2,32.089-10.578,22.941-9.058,63.151-14.939,68.591-15.189,11.282-1.3,24.18,5.308,29.589,15.2,3.215,5.882,2.436,8.2-.188,13.8-2.634,5.618,4.493,4.806,7.24,3.122,5.991-3.674,5.9-9.337,5.033-15.76-.817-6.041-3.414-6.7.843-11.5,3.654-4.126-12.387-12.221-8.9-12.842,9.817-1.749,26.589,3.866,35.176,8.528,5.154,2.8,10.174,4.414,14.818,8.233,4.6,3.786,7.356,5.849,13.254,2.758C955.677,25.767,938.94,18.6,931.976,15.318Z"/><path class="cls-1" d="M544.605,48.455c-5.821-4.061-8.305-8.862-15.1-2.417-4.943,4.686-5.916,10.99-3.9,17.244,1.642,5.1,9.5,9.6,15.545,9.815,18.018.332,27.982-17.813,28.161-30.583.2-14.662-10.144-30.926-24.556-35.311-16.673-5.073-33.269-5.4-46.43,8.111a76.8,76.8,0,0,0-14.109,20.4c-1.885,3.855-6.973,16.752-3.826,20.519,4.878,5.84,16.066-.3,17.717-6.085,1.929-6.764,4.29-13.533,9.534-18.5,9.7-9.179,29.641-13.575,38.6-.1C547.935,34.1,549.448,51.835,544.605,48.455Z"/><path class="cls-1" d="M446.559,9.671c-13.189-6.8-27.5-6.866-40.462.758-13.481,7.925-20.278,23.46-18.734,38.3,1.233,11.86,12.74,25.78,25.757,24.458,18.545,0,23.8-30,4.155-29.685-8.125.131-11.614,9.729-12.711-2.24-.652-7.112,5.879-12.586,11.7-15.28,15.157-7.011,29.814.015,37.572,14.439,3.178,5.911,1.683,14.375,8.835,17.133,8.1,3.121,10.817-1.865,9.425-9.157C468.946,31.861,462.144,17.7,446.559,9.671Z"/><path class="cls-1" d="M805.1,83.348c-1.563,1.282,4.994,13.626,5.984,15.444,4.469,8.2,4.244,22.564-2.927,29.026a11.9,11.9,0,0,1-10.187,2.368c-3.795-.869-5.451-6.5-9.038-6.624-3.844-.135-5.151,5.256-8.634,6.032-5.39,1.2-7.56,1.774-9.559,7.77-3.635,10.9,6.409,16.253,14.369,19.3,9.009,3.449,22.651-1.879,28.3-6.391,6.871-5.491,11.735-16.82,12.022-26.45,1.2-10.48-4.423-22.8-10.3-31.117C814.056,91.2,808.024,80.95,805.1,83.348Z"/><path class="cls-1" d="M169.009,123.368c-8.711-9.129-8.211,4.466-12.995,6.89-9.036,4.574-17.354-8.032-17.127-15.75a66.576,66.576,0,0,1,2.865-15.735c.01-.034,4.99-12.4.412-9.5-6.214,3.944-11.593,17.707-11.566,24.953-.028-.667-.059-1.192-.006.412a5.139,5.139,0,0,0,.037.517c1.263,19.227,11.47,46.4,35.853,43.367,7.512-.936,22.756-6.484,19.4-17.6C182.886,130.982,175.159,129.813,169.009,123.368Z"/><path class="cls-1" d="M455.66,61.042c-3.844-2.474-11.865-7.445-9.447,2.444,5.187,21.224,65.155,16.629,62.041-.746-.754-11.558-7.035-3.337-13.446-.616-6.442,2.734-14.011,3.09-20.924,3.087C467.749,65.21,460.945,64.442,455.66,61.042Z"/><path class="cls-1" d="M476.276,118.586c10.821-.068,11.48-17.228.411-17.185C465.843,101.443,465.48,118.653,476.276,118.586Z"/></g></g></svg>