<svg xmlns="http://www.w3.org/2000/svg" viewBox="0 0 947.759 231.849"><defs><style>.cls-1{fill:#c69963;}</style></defs><title>border-2-top</title><g id="Layer_2" data-name="Layer 2"><g id="Capa_1" data-name="Capa 1"><path class="cls-1" d="M296.691,71.963c1.894,1.492,12.8,4.965,12.5,7.812-.432,4.08-9.411,2.834-5.688,9.372,7.079,12.431,21.738,11.549,33.465,12.215,13.048.741,26.648-3.572,39.981-2.995,7.1.307,13.8-.138,20.736,1.325,2.936.621,6.688.675,9.233,2.488,2.9,2.064,3.067,7.231-1.48,7.18-26.718-.3-60.227-11.6-84.939,3.858-6.3,3.936-10.584,9.982-14.054,16.412-3.983,7.383,2.1,11.059,9.2,7.6,1.576-.768,13.985-11.926,13.728-4.871-.134,3.675-5.917,6.513-8.321,8.388a63.522,63.522,0,0,0-10.185,10.292c-4.306,5.325-7.59,10.9-7.539,17.8s.7,20.888,9.9,16.784c4.136-1.845,6.762,13.575,8.542,16.71,3.792,6.68,9.655,15.051,18.038,16.085,5.707.7,11.916,1.375,17.269-2.077,1.574-1.014,5.88-4.8,4.007-7.112-2.194-2.708-7.418-.268-10.019.486-14.5,4.2-26-40.071-17.961-57.14,3.141-6.67,7.55-13.738,12.794-18.894,11.755-11.556,34.049-14.546,50.244-14.916,8.43-.193,28.674,2.059,38.913,11.06a102.333,102.333,0,0,1,13.258,14.72c7,9.184,5.633,6.195,16.321,5.6,10.77-.595-7.8-28.374-10.834-31.455-9.208-9.344-19.028-19.041-32.065-23.323-27.044-8.884-55.554-8.65-82.631-17.7-12.09-4.038-24.372-8-35.066-15.222-11.5-7.768-12.641-21.5-.547-29.232,7.007-4.477-4.227-6.764-6.818-7.558-5.861-1.8-9.093,9.378-10.589,12.976C280.785,51.378,286.291,63.773,296.691,71.963Z"/><path class="cls-1" d="M488.148,138.429c-3.863,7.73-2.741,10.417,5.6,12.92,7.787,2.335,8.533-2.572,12.765-7.948,9.551-12.129,22.019-19.484,36.873-23.237,26.737-6.755,62.689,3.456,76.743,29,6.35,11.545,8.9,26.925,4.845,39.549-1.93,6.009-5.877,12.8-11.372,16.245-2.528,1.584-17.709.907-11.683,6.92,8.983,8.962,26.318-2.711,31.453-10.447,1.492-2.247,3.948-13.17,5.661-14,1.092-.529,2.144-.044,3.211.439s2.174.979,3.343.421c2.664-1.278,2.657-6.625,3.965-8.975,6.234-11.188-5.108-28.895-12.684-36.189-1.143-1.1-11.814-9.769-5.706-10.7,2.11-.322,4.316.875,6.586,2.073,3.186,1.68,6.5,3.36,9.848.84,7.481-5.631-16.506-22.081-20.058-23.671-14.767-6.607-30.547-6.314-46.3-6.314-6.839-.068-14.556,1.318-20.854,2.545-1.687.328-16.835,3.908-12.868-3.691,4.915-9.412,29.651-6,37.851-5.772,7.443.206,14.883.221,22.223,1.638,11.076,2.138,27.242,1.913,33.03-1.457,2.795-1.627,15.484-9.8,10.55-13.929-.608-.508-13.486-4.2-9.369-6.189,5.01-2.426,9.788-3.066,14.162-6.846,10.41-9,18.1-25.92,6.329-36.746-1.427-1.311-10.916-6.191-10.42-.782.5,5.437,6.549,7.775,5.5,14.538-1.058,6.786-6.19,11.946-11.52,15.776-4.709,3.386-37.22,18.085-55.433,19.626-13.333,1.129-27.449,1.673-40.338,5.711C523.371,98.145,501.045,112.621,488.148,138.429Z"/><path class="cls-1" d="M382.6,66.481c3.177.041,7.2-8.29,10.72-9.689,13.448-5.335,27.726,1.674,37.57,10.991,10.516,9.953,17.878,22.029,27.616,32.536,5.788,6.244,9.2,5.615,17.034,4.861a13.038,13.038,0,0,1,4.553.639,11.308,11.308,0,0,0,5.038.559c4.156-.809,7.673-3.959,10.35-7.037,14.975-17.221,30.555-40.3,55.363-42.588,5.855-.539,11,2.609,15.654,5.735,4.052,2.724,7.806,6.991,8.281-2.022.344-6.514-6.462-12.151-10.912-16.069-5.02-4.418-9.715-3.806-16.06-3.806-1.775-.281-4.435.281-7.148.842-3.642.755-7.382,1.509-9.206.226-2.4-1.687-1.586-10.907-7-8.512A53.587,53.587,0,0,0,511.31,41.2c-4.7,4.117-8.483,11.307-10.709,16.94-2.5,6.338-4.783,12.43-6.662,19-1.915,6.7-12.608,7.339-10.015.146,4.683-12.988,19.946-26.545,18.035-41.363-.405-3.141-1.687-14.092-6.665-13.3-1.313.208-9.812,3.184-5.447-1.561,5.5-5.981-3.489-12.735-7.139-17.163-6.563-7.965-8.809-2.175-14.231,3.663-4.436,4.778-5.622,8.405-5.483,14.185.045,1.9-1.873,1.615-3.945,1.335-1.768-.24-3.648-.48-4.514.635-2.964,3.816-2.925,14.976-2.37,19.579.848,7.017,7.191,14.794,10.222,21.131,1.979,4.139,7.179,9.859,6.665,14.735-.872,8.277-9.384.011-10.739-3.305-5.015-12.285-7.027-30.862-16.278-37.181-5.182-3.54-12.647-10.2-16.737-2.181-3.186,6.243-3.647,5.7-7.277,5.161a26.088,26.088,0,0,0-5.342-.271,29.756,29.756,0,0,1-5.538-.45c-3.059-.435-6.168-.872-9.154.221-6.425,2.349-14.578,5.423-17.674,12.3C379.2,55.919,377.154,66.41,382.6,66.481Z"/><path class="cls-1" d="M719.327,194.336c.257,1.472.229.423.145-.626C719.371,192.445,719.189,191.18,719.327,194.336Z"/><path class="cls-1" d="M643.489,114.038c.257,3.847,7.633,12.47,9.853,16.155,3.66,6.073,8.725,8.488,14.491,12.585a140.194,140.194,0,0,1,31.293,30.347c7.221,9.475,12.322,22.847,4.281,33.644-4.141,5.562,5.312,3.81,7.636,2.467,4.477-2.585,9.209-9.6,8.284-14.9C718.7,180.1,711.534,169.5,701.989,159.5c-2-2.091-5.327-4.565-6.393-7.361-.788-2.066,1.43-6.2,3.949-3.844a75.132,75.132,0,0,1,11.56,13.778c2.258,3.344,7.242,7.863,10.4,10.471,3.929,3.238,8.936,8.409,14.4,8.293,3-.063,16.085-.137,14.063-5.451-2.008-5.276-6.362-8.8-11.319-11.184-2.029-.979-11.693-6.191-9.016-9.861,3.339-4.577,11.814,5.159,14.045,7.039,11.779,9.927,23.511,12.849,38.688,9.723,9.044-1.863,7.516-4.94,1.972-10.372-4.144-4.061,7.167-7.412,9.707-9.51,4.573-3.776,7.732-7.253,9.886-12.665,2.423-6.09.637-6.657-4.14-2.218-21.122,19.624-50.588,9.241-74.462,3.081-15.539-4.009-30.707-9.6-45.818-14.972-6.82-2.426-13.412-5.444-20.233-7.874C657.42,115.91,643.2,109.739,643.489,114.038Z"/><path class="cls-1" d="M160.607,143.176c-3-1.416-8.684-8.885-11.978-8.249-7.9,1.526,14.6,19.307,18.282,20.518,3.741,1.23-2.91,9.3-1.462,12.6.958,2.183,16.291,5.974,18.6,5.74,14.883,1.179,22.991-14.52,35.651-17.841,7.257-1.9-4.535,9.174-5.89,9.908-4.207,2.282-12.746,5.1-12.778,11.061-.031,5.775,11.967,3.53,15.34,3.777,6.1.445,11.992-7.692,15.742-11.442,5.241-5.242,9.719-10.949,15.516-15.591,2.248-1.8,5.488-5.519,8.651-5.589,3.8-.083.07,4.167-.544,4.716-9.933,8.872-18.353,20.024-21.879,32.861-2.746,9.992,3.117,25,15.32,24.536,6.869-.262-1.523-9.494-2.377-11.618-2.568-6.374-.371-11.561,2.017-17.5,4.547-11.311,15.017-18.807,22.911-27.207,4.5-4.792,8.99-9.818,14.931-12.871,3.957-2.032,12.221-4.767,13.49-9.433,1.522-5.592,5.917-9.185,8.326-14.115,2.762-5.654-9.774-.918-11.354-.143-23.131,11.356-48.384,16.562-73.068,23.748-7.13,2.076-14.631,4.574-22.016,5.546-6.743.888-13.058.756-19.771,1.407C174.95,148.7,167.162,146.272,160.607,143.176Z"/><path class="cls-1" d="M16.968,216.444c12.354,5.266,24.588,9.664,37.69,12.229,48.6,9.513,96.244-3.1,138.482-27.713,3.581-2.087,28.75-19.023,11.57-17.249-11.217,1.157-20.334,8.492-30.292,13.28-21.777,10.47-50.4,16.378-74.237,12.4-10.7-1.788-20.74-11.277-20.565-22.509.062-4.04,5.088-11.324-2.917-10.791-6.044.4-8.067,6.064-8.942,11.191-.758,4.445-.22,10.316,2.209,14.263,2.587,4.2-8.711,3.142-5.793,7.729,2.824,4.44,10.563,8.2,15.247,10.162,5.538,2.324-2.5,3.181-4.234,3.181-10.435,1.357-25.13-5.517-34.735-8.99A87.447,87.447,0,0,1,23.349,205c-7.714-4.909-9.771-7.211-18.264-3.163-1.932.921-7.42,1.265-3.972,4.769C5.485,211.049,11.294,214.026,16.968,216.444Z"/><path class="cls-1" d="M745.813,185.4c-7.574.259.271,5.7,2.265,6.762,7.129,3.786,14.324,7.453,21.3,11.525a221.349,221.349,0,0,0,57,23.405c9.467,2.37,20.937,4.526,30.72,3.681,12.973-1.119,26.5-.475,39.3-2.968a151.452,151.452,0,0,0,35.578-11.273c6.964-3.277,23.7-10.449,11.385-16.9-5.9-3.091-8.651-1.028-13.254,2.758-4.644,3.819-9.664,5.437-14.818,8.233-8.587,4.662-25.359,10.277-35.176,8.528-3.49-.621,12.551-8.716,8.9-12.842-4.257-4.806-1.66-5.462-.843-11.5.868-6.423.958-12.085-5.033-15.76-2.747-1.683-9.874-2.5-7.24,3.122,2.624,5.6,3.4,7.916.188,13.8-5.409,9.9-18.307,16.5-29.589,15.2-5.44-.25-45.65-6.131-68.591-15.189C766.807,191.6,758.33,184.971,745.813,185.4Z"/><path class="cls-1" d="M498.321,216.535c13.161,13.514,29.757,13.184,46.43,8.111,14.412-4.385,24.761-20.649,24.556-35.311-.179-12.77-10.143-30.915-28.161-30.582-6.043.214-13.9,4.715-15.545,9.814-2.014,6.254-1.041,12.558,3.9,17.244,6.8,6.445,9.281,1.644,15.1-2.418,4.843-3.379,3.33,14.354,1.635,16.9-8.962,13.477-28.9,9.081-38.6-.1-5.244-4.963-7.605-11.733-9.534-18.5-1.651-5.789-12.839-11.925-17.717-6.085-3.147,3.768,1.941,16.664,3.826,20.519A76.8,76.8,0,0,0,498.321,216.535Z"/><path class="cls-1" d="M417.275,188.35c19.641.315,14.39-29.686-4.155-29.686-13.017-1.322-24.524,12.6-25.757,24.458-1.544,14.838,5.253,30.373,18.734,38.3,12.967,7.624,27.273,7.556,40.462.758,15.585-8.032,22.387-22.19,25.54-38.724,1.392-7.292-1.33-12.278-9.425-9.157-7.152,2.758-5.657,11.222-8.835,17.133-7.758,14.423-22.415,21.45-37.572,14.439-5.824-2.694-12.355-8.168-11.7-15.28C405.661,178.62,409.15,188.218,417.275,188.35Z"/><path class="cls-1" d="M780.294,102.255c3.483.776,4.79,6.167,8.634,6.032,3.587-.124,5.243-5.755,9.038-6.624a11.9,11.9,0,0,1,10.187,2.368c7.171,6.462,7.4,20.827,2.927,29.027-.99,1.817-7.547,14.161-5.984,15.443,2.928,2.4,8.96-7.851,10.027-9.359,5.879-8.312,11.5-20.637,10.3-31.117-.287-9.63-5.151-20.958-12.022-26.45-5.648-4.513-19.29-9.84-28.3-6.391-7.96,3.048-18,8.405-14.369,19.3C772.734,100.481,774.9,101.057,780.294,102.255Z"/><path class="cls-1" d="M130.6,117.62c-.027,7.246,5.352,21.009,11.566,24.953,4.578,2.905-.4-9.463-.412-9.5a66.576,66.576,0,0,1-2.865-15.735c-.227-7.718,8.091-20.324,17.127-15.75,4.784,2.424,4.284,16.019,12.995,6.89,6.15-6.445,13.877-7.614,16.876-17.558,3.353-11.115-11.891-16.663-19.4-17.6-24.383-3.038-34.59,24.14-35.853,43.367a5.139,5.139,0,0,0-.037.517C130.539,118.812,130.57,118.287,130.6,117.62Z"/><path class="cls-1" d="M494.808,169.725c6.411,2.721,12.692,10.942,13.446-.616,3.114-17.375-56.854-21.97-62.041-.746-2.418,9.889,5.6,4.918,9.447,2.444,5.285-3.4,12.089-4.168,18.224-4.169C480.8,166.635,488.366,166.991,494.808,169.725Z"/><path class="cls-1" d="M476.276,113.264c-10.8-.068-10.433,17.142.411,17.184C487.756,130.491,487.1,113.331,476.276,113.264Z"/></g></g></svg>