<svg xmlns="http://www.w3.org/2000/svg" viewBox="0 0 897.591 222.26"><defs><style>.cls-1{fill:#c69963;}</style></defs><title>border-3-bottom</title><g id="Layer_2" data-name="Layer 2"><g id="Capa_1" data-name="Capa 1"><path class="cls-1" d="M369.055,117.5c21.2,2.827,29.9,15.325,43.631,26.584,8.255,6.869,2.14-10.553,1.071-12.188-4.912-7.686-10.282-15.231-17.12-21.859-13.416-13-31.993-19.516-50.15-27.343-20.86-9-43.186-12.58-67.373-14.692-20.19-1.751-40.159-4.1-60.867-4.232-44.511-.36-91.065,4.884-134.718-.034-22.853-2.593-41.67-7.981-59.572-17.259-9.112-4.662-8.508-16.234-16.892-20.4C-2.084,21.622.021,37.319.688,39.393c1.931,6.34,10.99,14.834,17.383,18.294,5.653,3,18.974,3.269,21.692,8.583,3.772,7.307-13.409,10.066.664,14.765,8.043,2.742,11.353,9.9,19.206,12.491,20.839,6.9,45.156-5.334,67.4-10.713,10.862-2.667,21.577-7.17,32.569-8.454,12.535-1.4,10.849,4.148.7,8.088-11.308,4-56.072,25.079-24.8,25.474,9.41.2,14.661,5.759,23.162,7.2,9.915,1.716,17.553-1.521,27.2-4.609,1.111-.376,1.222-.418.917-.324,23.683-8.144,45.607-20.755,70.344-27.109a100.1,100.1,0,0,1,36.057-2.38c3.385.372,11.622,3.062,5.713,6.764-3.609,2.268-10.258,2.7-14.41,3.684-11.761,2.756-24.279,3.657-31.323,13.291-6.289,8.7,8.732,10.982,13.883,15.788,7.567,6.895,19.83,6.767,30.337,3.879,16.57-4.482,4.372,6.063,15.575,7.835,9.786,1.621,19.831-8.761,28.716-11.517C349.6,117.923,360.88,116.426,369.055,117.5Z"/><path class="cls-1" d="M21.472,32.329C35.256,43.018,45.177,53.5,68.175,54.377c11.46.492,21.541,3.209,33.167,3.161q18.011-.057,35.806.466c20.866.641,41.746-.824,62.7-1.186C248.439,55.911,297.506,60,341.062,71.96a185.866,185.866,0,0,1,34.8,13.691c2.679,1.256,18.95,13.516,20.948,7.278,3.388-9.782-29.86-22.888-36.432-28.29-6.6-5.822-7.783-13.876-15.82-19.146-5.919-3.863-13.415-6.058-21.22-7.088-8.028-1.09-20.789-2.4-28.955-.681-9.584,2.018,1.412,9.741,1.545,12.74.627,6.255-51.589-5.765-58.14-7.251-9.834-3.224-19.6-6.651-28.937-10.541-7.763-3.254-19.033-8.972-29.679-6.694.6-.186.607-.214-1.063.23-2.233.685-2.3.734-1.637.554-15.193,5.723-.813,15.805,7.286,18.083,13.159,3.729-.923,6.819-8.405,6.489-10.414-.487-20.974-1.854-31.273-2.774-19.171-1.808-43.765-4.826-56.656-15.056-6.5-5.265-18.267-3.12-17.851,6.335.438,9.21-15.9,1.968-18.54.888C36.693,34.417,20.466,21.316,23.438,5.071c.51-2.686-2.683-8.231-6.266-2.715C14.918,5.84,15.2,9.83,15.27,13,15.386,18.576,16.956,28.875,21.472,32.329Z"/><path class="cls-1" d="M419.008,179.9c-4.951,2.674-6.143,10.457-8.841,14.758-8.088,12.871-19.5,17.269-34.35,15.964-12.791-1.119-21.889-16.145-16.727-27.6,2.99-6.568,11.5-9.413,18.547-6.962a5.666,5.666,0,0,0,7.349-7.6c-5.906-14.243-25.642-8.045-34.439-.172-25.308,23.088,1.875,57.741,30.956,53.222,18.345.047,28.709-14.1,37.205-27.818C419.385,192.51,425.959,176.169,419.008,179.9Z"/><path class="cls-1" d="M892.838,27.5c-7.652-3.173-13.587,9.848-17.706,12.587-7.421,4.963-14.553,10.838-23.518,14.32C813.859,68.9,766.024,68.531,720.786,66.4c-46.792-2.433-93.406-.331-136.179,8.69-41.353,8.541-80.592,27.279-102.792,56.426-1.122,1.36-10.958,20.744-2.247,16.994,5.279-2.263,8.722-10.793,12.982-14.494,10.812-9.572,34.636-16.233,50.553-13.125,11.3,2.167,17.833,3.619,27.765,9.62,8.99,5.491,12.648,3.432,15.294-4.339,1.87-5.529,10.145.051,13.851,1.2a28.33,28.33,0,0,0,23.541-3.3c3.5-2.493,20.49-12.467,19.689-16.072C641.279,99.662,627.7,95.468,619.42,93.44c-6.416-1.645-20.9-.511-25.733-3.773-7.08-4.8,5.941-6.816,9.048-7.159,11.042-1.331,20.774-.772,32.12-.207,9.483.482,17.871,6.056,26.726,8.029,18.543,4.127,34.622,19.248,52.763,23.429,14.972,5.549,25.809,1.49,37.615-4.067,5.111-2.514,26.273,1.114,16.87-9.157-11.686-12.616-28.822-11.806-43.276-17.871-5.679-2.37-5.562-6.808-.233-7.794,6.66-1.233,16.765,2.785,23.653,4.365,26.923,6.072,53.537,16.92,80.048,13.747,8.19-1.066,27.2-5.866,26.1-14.926-.389-3.106-7.949-7.536-5.742-10.066,2.838-3.272,11.415-4.337,15.8-6.311C870.231,59.025,911.334,35.278,892.838,27.5Z"/><path class="cls-1" d="M496.142,97.067c-1.255,1.661-1.146,5.849,2.8,5.146,3.749-.662,7.029-4.232,9.69-6.189,32.253-23.8,74.991-31.209,119.344-35.709,29.227-3.047,60-2.543,90.688-2.038,14.2.232,28.383.467,42.382.347,25.324-.239,48.668-2.068,72.058-6.741,15.692-3.275,41.575-13.564,45.368-26.928,1.726-2.6,6.482-22.027-4.351-23.666-5.072-.738-3.11,19.99-8.2,22.864-4.837,2.485-38.679,29.7-46.036,20.909-3.1-3.624,6.01-9.495-3.545-12.381-7.721-2.3-13.822,4.863-18.272,7.3-17.317,9.374-45.254,8.726-67.337,9.277-2.192-.092-29.807-1.181-18.656-6.119,4.785-2.166,16.348-7.377,8.969-13.681-9.217-7.807-25.124-.157-30.622,3.777-6.944,4.856-15.475,8.237-24.587,10.586-18.041,4.645-36.7,8.581-55.179,12.011-1.38.132-26.723,4.136-18.432-1.268,4.776-3.186,16.135-6.959,14.113-13.419-1.6-5.113-19.117-5.942-24.543-5.955-8.7-.129-18,3.779-24.38,7.589-16.827,10.09-25.128,26.553-40.98,37.72C509.137,85.674,501.271,90.287,496.142,97.067Z"/><path class="cls-1" d="M532.21,160.928c-7.522-1.176-15.444-.015-19.911,5.87-2.762,3.654-3.328,13.2,4.406,10.866,14.329-4.235,26.034,7.837,19.4,20.427-6,11.541-19.547,15.456-31.65,10.465a47.365,47.365,0,0,1-16.849-11.684c-4.151-4.742-4.774-13.739-9.838-17.29-8.259-5.626-4.591,17.958,10.128,31.012,22.2,19.564,63.395,15.072,66.913-17.659C557.1,178.634,550.278,163.776,532.21,160.928Z"/><path class="cls-1" d="M456.869,159.007c-6.448.106-12.909.212-19.267-.055-9.381-.392-17.578-.551-26.159-4.182-6.952-2.927-14.832-.088-8.557,7.029,7.417,8.258,35.822,9.9,46.89,9.373a158.119,158.119,0,0,0,30.9-3.03c3.728-.834,19.286-7.5,12.451-13.037-2.561-2.052-6.87,1.657-8.879,2.42-4.477,1.687-8.911,1.451-13.675,1.389C466.04,158.856,461.457,158.931,456.869,159.007Z"/><path class="cls-1" d="M457.393,141.118c.211,1.826,1.3,9.49,6.006,6.023,4-2.924,4.106-9.95,4.651-14.046,1.315-9.83,4.818-19,8.023-28.47,3.083-9.173,9.222-17.6,14.575-25.976,2.438-3.822,5-7.811,9.314-10.529,2.988-1.886,8.082-1.863,10.579-3.986,5.187-4.4-5.833-6.086-8.869-5.722-6.053.682-11.147,3.7-15.268,7C478.177,72,474.663,80.6,471.259,89.268c-3.615,9.215-7.665,18.362-9.755,27.918C460.077,123.586,456.327,134.663,457.393,141.118Z"/><path class="cls-1" d="M394.289,66.483c21.79,5.9,25.794,35.007,30.045,49.98,2.186,7.7,4.72,16.621,4.657,24.57-.051,8.976,7.1,5.17,7.6-1.347.006-.05.013-.108.016-.188-3.739-20.828-3.356-43.492-13.561-63.1-4.155-7.914-9.891-14.66-20.667-17.409C392.32,56.455,380.57,62.906,394.289,66.483Z"/><path class="cls-1" d="M442.5,78.257c.837,4.229.476,8.684.563,12.948q.284,14.214.6,28.427c.095,5.793-2.913,27.224,4.1,26.935,6.553-.245,5.842-61.479,6.374-65.891.561-4.713,8.516-14.919,2.491-18.446-4.54-2.7-20.179-3.842-19.561,3.226C437.438,69.783,441.638,73.852,442.5,78.257Z"/><path class="cls-1" d="M447.457,177.955c-14.714.083-3.39,9.782-3.335,16.806.072,6.253-4.063,17.145,2.135,20.97,7.924,4.983,6.485-18.989,6.4-21C452.3,186.583,463.72,178.039,447.457,177.955Z"/></g></g></svg>