<svg xmlns="http://www.w3.org/2000/svg" viewBox="0 0 438.553 180.076"><defs><style>.cls-1{fill:#c69963;}</style></defs><title>border-4-bottom</title><g id="Layer_2" data-name="Layer 2"><g id="Capa_1" data-name="Capa 1"><path class="cls-1" d="M335.786,41.267c-12.789-5.428-28.351-.935-39.681,5.8-7.051,4.193-13.064,8.86-18.1,15.355-.622.8-10.656,14.394-9.9,9.506,1.859-12.082,15.258-23.075,24.3-29.857,24.876-18.655,55.282-22.247,84.573-12.882,14.009,4.479,26.275,12.612,33.714,25.49,3.707,6.418,3.645,12.29,12.006,12.994,3.429.288,16.74,1.593,15.814-4.51-4.443-29.282-33.575-53.989-61.523-59.542-32.225-6.4-66.741-.878-94.137,17.828C259,37.738,236,68.269,238.3,98.494c-3.1,34.032,27.425,69.088,63.136,60.363,14.594-3.565,26.708-14.319,25.365-30.329-1.211-14.419-16.325-29.033-29.71-16.276-5.013,4.777-5.56,10.509-3.062,16.731,3.4,8.459-12.484,2.666-14.9.677-10.988-9.038-10.858-28.166-6.483-40.416a37.357,37.357,0,0,1,33.583-24.992c10.208-.528,31.4,10.766,22.117,23.743-2.395,3.349-11.153,9.175-.009,9.7,5.275.25,10.939-4.074,13.825-8.151,3.387-4.785,4.718-12.858,3.908-18.6-.8-5.632-4.73-7.48-7.6-11.64-1.795-2.6,8.876-1.767,9.311-5.813C348.318,48.485,339.454,42.823,335.786,41.267Z"/><path class="cls-1" d="M200.081,92.474c-.747-30.993-27.268-62.651-53.5-76.431C120.916,2.567,84.437-5.508,56.394,4.415,41.072,9.837,26.589,18.621,16.157,31.3,13.083,35.031-7.995,65.39,3.3,65.642c6.189.137,15.474,3.216,19.014-3.365A78.361,78.361,0,0,1,34.25,45.6,61.824,61.824,0,0,1,68.163,27.137c30.625-6,58.442-1.42,82.744,19.206,6.48,5.5,12.379,11.531,16.758,18.862,1.16,1.942,3.968,5.5,3.821,7.93-.15,2.494-2.713,1.347-3.472.2-7.617-11.458-16.725-21.358-29.13-27.874C126.648,39.04,109.368,34.6,97.173,43.52,94,45.839,86.823,53.114,93.4,55.762c9.061,3.646,2.909,4.347-.6,10.334-5.8,9.9,1.833,31.773,15.429,30.784,10.115-.737,4.528-5.693,1.117-9.145-4.191-4.24-.8-12.255,2.36-16.106,21.117-25.712,58.789,9.277,55.912,34.161-.513,8.445-1.062,15.633-7.278,22.1-2.924,3.044-13.567,10.774-17.254,4.836-1.508-2.428,2.68-7.83,2.594-10.73-.1-3.427-1.833-6.449-3.949-9.028-4.231-5.158-10.168-6.813-16.648-5.809-15.637,2.421-19.476,26.541-10.627,37.418,9.8,12.045,24.01,16.575,39.187,13.932C187.03,152.7,200.825,123.313,200.081,92.474Z"/><path class="cls-1" d="M171.905,17.314c2.574-.732,5.268-1.464,7.247-.37,15.06,8.322,19.415,26.9,24.507,41.99,1.746,5.174,4.562,15.55,12.123,13.686a23.725,23.725,0,0,1,5.886-.517c3.994,0,7.373,0,10.224-5.378,7.369-13.9,8.343-31.558,19.187-43.74,4.878-5.479,11.14-8.309,18.256-5.231,8.823,3.818,3.376-9.81.122-12.357-5.726-4.479-15.7-3.306-21.419.563-2.541,1.719-9.83,11.863-12.353,11.525-2.617-.351-3.569-5.983-4.736-7.658a15.689,15.689,0,0,0-7.258-5.853,13.678,13.678,0,0,0-16.639,6.481c-1.135,2.1-2.548,9.341-6.289,5.509-1.971-2.02-3.466-4.415-5.541-6.366A31.269,31.269,0,0,0,179.5,1.746a9.617,9.617,0,0,0-1.516-.238,8.85,8.85,0,0,0-1.373.217c-5.9,1.153-13.048,5.587-12.705,12.172C164.205,19.584,167.911,18.448,171.905,17.314Z"/><path class="cls-1" d="M427.032,87.663c-1.047.057-1.969.114-2.639.093-6.595-.2-10.712,3.508-14.879,7.215-4.329,3.852-8.712,7.7-15.984,7.174-2.539-.184-12.906-4.045-9.715-8.24.809-1.063,2.959-.853,5.248-.643,2.132.195,4.384.39,5.788-.442,10.313-6.112,5.271-23.436-4.091-27.718s-21.5.092-27.112,8.187c-14.717,21.239,3.777,55.955,30.593,53.38,14.366.381,27.36-7.373,35.685-18.88,2.921-4.035,7.971-11.158,7.375-16.468C436.844,87.227,431.032,87.445,427.032,87.663Z"/><path class="cls-1" d="M50.04,63.09c-10.12,3.4-17.722,16.818-9.029,25.855,1.772,1.843,12.807,5.092,10.922,7.384-3.378,4.109-7,5.379-12.208,4.318-6.838-1.391-10.766-4.984-15-10.224-3.132-3.88-9.946-2.767-14.756-2.532.516.013.574.042-1.385.042,0-.229-9.3-.905-7.764,5.824a35.581,35.581,0,0,0,8.233,15.887c7.609,8.478,18.619,14.464,30.077,14.955,24.532,1.05,50.307-21.341,38.161-47.341C72.357,66.691,61.941,59.093,50.04,63.09Z"/><path class="cls-1" d="M253.011,166.15a44.957,44.957,0,0,1-7.679-5.579c-9.18-8.353-12.615-20.752-15.465-32.439-1.288-5.283-2.714-12.226-9.4-12.778-4.3-.354-7.879,1.4-9.672,5.424-5.255,11.8-6.437,25.454-14.447,35.953-3.552,4.655-9.012,10.36-15.463,9.716-1.858-.185-10.283-1.97-5.814,3.242,8.617,10.049,21.37,7.8,30.776.512,2.012-1.558,4.45,1.587,7.162,4.732,3.929,4.556,8.435,9.112,13.062-.631,3.167-6.671,3.973-5.067,9.181-1.4,4.161,2.932,7.817,4.36,14.048,5.322,2.051-.424,16.6-5.089,11.758-9.414C259.041,167.012,255.364,167.518,253.011,166.15Z"/><path class="cls-1" d="M205.526,93.053c-.155,16.412,27.732,16.245,26.038-.382C231.57,75.055,205.684,76.3,205.526,93.053Z"/></g></g></svg>