<svg xmlns="http://www.w3.org/2000/svg" viewBox="0 0 690.906 232.219"><defs><style>.cls-1{fill:#c69963;}</style></defs><title>border-1-top</title><g id="Layer_2" data-name="Layer 2"><g id="Capa_1" data-name="Capa 1"><path class="cls-1" d="M186.9,114.208c-4.631,7.018-8.5,13.871-7.276,22.63.322,2.3,6.8,15.062,6.685,17.08-.233-2.17-17.64-14.071-14.656-5.369,1.642,4.788-1.737,9.811-1,14.788.747,5.061,3.777,9.584,7.184,13.258,7.586,8.182,18.694,14.522,28.869,18.834,6.573,2.784,28.444,4.24,32.283,10.334,3.76,5.964-24.518-2.316-26.867-3.248-13.817-5.484-26.367-13.5-39.548-20.273a285.107,285.107,0,0,0-34.156-14.559c-5.589-1.989-11.27-3.56-17.249-2.561q-4.583,1.095-9.056,2.579c-4.893,1.569.172,3.91-.3,6.152-.64,3.072-11.856,2.844-14.135,3.348a47.624,47.624,0,0,0-15.07,6.494c-9.923,6.277-18.289,14.674-18.745,27.1-.326,8.922,5.329,19.232,15.988,16.913,9.655-2.1,11.808-20.223.851-17.719-11.119,2.541,4.532-16.949,7.263-19.11,14.738-11.651,2.811,2.018,10.153,4.3,4.949,1.54,8.882-3.781,12.674-6a31.685,31.685,0,0,1,14.369-4.606c10.616-.54,23.9-4.1,34.1.817-.067-.186.767.158,2.941,1.688a20.7,20.7,0,0,0-2.941-1.688,7.769,7.769,0,0,0,2.947,1.692h0c-4.642-1.743-14.11-2.211-18.7-.786-7.04,2.185-17.251,6.46-6.182,10.4,3.361,1.195-8.724,10.9-10.739,12.376-2.2,1.617-7.792,3.327-3.724,6.96a14.112,14.112,0,0,0,9.766,3.816c6.716-.218,10.994-5.722,15.182-10.22,2.648-2.846,6.932-6.343,5.1.06-1.966,6.875,5.961,6.426,10.313,4.211,7.594-3.865,13.925-7.116,22.924-5.812,7.332,1.063,14.818,1.7,22.032,3.4,1.137.268,17.892,2.526,14.578,5.581-6.814,6.279-3.538,9.912,4.521,7.487,9.012-2.712,19.649-.424,28.957-1.047,17.035-1.143,33.376-4.83,48.006-14.568,12.585-8.376,27.194-26.729,27.406-42.457.081-6-13.963-5.182-17.832-4.94-6.988.436-7.46,7.259-10.5,12.386a47.487,47.487,0,0,1-40.379,23.723c-36.829.553-66.753-31.25-59.058-68.534,2.352-11.4,13.59-25.835,26.787-23.009,7.613,1.631-.24-7.344-4.018-8.272-6.6-1.618-14.508,1.451-19.568,5.637-2.592,2.146-7.389,13.12-9.911,13.229C191.228,116.962,194.1,103.3,186.9,114.208Z"/><path class="cls-1" d="M548.063,187.2c.963.021,4.872.042,2.043-.02C547.841,187.176,547.576,187.187,548.063,187.2Z"/><path class="cls-1" d="M463.7,110.018c9.1,3.112,15.628,12.883,18.148,21.754,10.128,35.667-17.13,66.732-52.644,67.783-19.834.587-42.074-10.969-48.461-30.663-2.719-8.383-12.81-7.394-20.351-6.269-10.98,1.637-1.583,17.705,1.648,23.6,11.35,20.7,30.41,31.688,53.193,35.563,12.416,2.112,25.035.755,37.411,2.578,4.316.636,9.17,4.367,13.245,4.384,5.136.023,2.328-6.205.346-7.857-6.153-5.127-.755-5.471,6.326-5.6,11.592-.22,22.8-5.146,34.508-4.252,5.156.393,23.182,10.251,26.584,6.45.933-1.043-1.191-10.918,2.369-7.76,3.644,3.229,7.3,7.242,11.458,9.8,5.325,3.272,23.431-.406,14.371-6.285-4.479-2.9-7.528-7.374-11.506-10.847-3.072-2.681,3.767-3.117,4.138-5.325,1.247-7.4-10.447-6.847-18.2-6.292a35.1,35.1,0,0,1-6.139.212c-2.627-.568,1.987-2.492,2-2.5,5.8-1.816,11.994-1.309,17.967-1.309,8.089.181,15.47-.087,22.809,4.022,3.665,2.051,14.065,12,18.519,6.88,1.42-1.634-2.191-8.528,2.727-5.738,6,3.407,15.526,10.849,16.363,18.412.494,4.46-1.216,4.271-3.655,4.082-1.861-.144-4.147-.288-6.207,1.628-5.361,4.983.535,14.208,6.594,15.369,21.274,4.077,17.815-25.109,8.818-34.9-5.55-6.038-12.118-11.463-19.9-14.261-6.822-2.453-13.478-1.25-19.974-2.971-2.219-.588-1.214-2.351-.309-3.367,3.255-3.652-1.74-4.513-4.072-5.521-9.707-4.2-16.781-1.647-26.139,2.291-17.586,7.4-34.71,16.062-51.7,24.723-8.67,4.419-17.533,8.8-27,11.226a64.944,64.944,0,0,1-14.753,2.061c-2.689.056-7.5-2.67-3.2-4.585,6.632-2.95,14.944-2.189,21.934-4.686a141.313,141.313,0,0,0,25.2-11.442c6.354-3.807,12.22-8.573,16.344-14.8,3.858-5.826,7.546-18.541,3.059-25.111-2.342-3.428-5.326-.975-7.966,1.479-2.1,1.95-3.978,3.9-5.144,2.9-.79-.678,5.432-13.367,5.665-15.152,1.359-10.417-5.787-14.474-8.969-23.095-3.468-9.393-7.483,4.595-9.233,4.729-1.382.107-8.435-13.113-10.989-15.083-5.825-4.491-13.922-7.106-20.957-3.645C447.08,107.979,459.516,108.591,463.7,110.018Z"/><path class="cls-1" d="M252.065,74.658c15.687-4.149,33.983.4,47.971,8.049,14.675,8.03,23.406,23.886,36.649,33.754,1.684,1.255,11.075,2.4,13.319,1.9,6.15-1.37,13.35-13.271,17.807-17.583,12.734-12.319,27.829-22.407,45.722-24.909a58.947,58.947,0,0,1,21.938.96c3.492.849,12.647,9.309,14.611,8.3,4.142-2.119-3.818-11.785-5.672-13.339-4.959-4.158-13.593-6.292-19.95-5.465-.56-.06-3,.255-5.873.572-5.442.6-12.419,1.2-10.979-.77a36.463,36.463,0,0,0,5.71-4.3c2.464-2.264,3.973-4.528-.022-4.3-8.884.507-14.222.8-22.69,3.4-2.321.713-1.582-3.992-2.548-4.915-2.762-2.64-10.253,1.54-12.639,3.082-7.707,4.977-11.806,14.151-15.408,22.227-1.43,3.2-2.588,7.783-5.835,9.76a3.3,3.3,0,0,1-4.934-3.7c3.122-10.144,9.644-19.125,13.98-28.8,2.7-6.021,9.2-19.175,4.169-25.734-1.944-2.536-4.409-.23-6.592,2.075-2.051,2.166-3.853,4.331-4.741,2.482-3.1-6.473-10.221-8.42-17.661-7.1-3.614.642-5.174,9.746-7.59,5.956C323,24.016,318.431,39.635,321.6,47.21c4.426,10.59,8.709,20.8,13.679,31.168,4.46,9.3-.588,18.072-5.706,5.6-3.583-8.732-8.18-20.145-16.175-25.765a30.7,30.7,0,0,0-10.578-4.449c-5.188-1.251-1.695,4.814-3.674,5.955-1.484.857-7.076-3.263-8.709-3.836-3.092-1.089-6.032-1-9.1-.911-1.113.032-2.244.064-3.4.04-4.65-.1-3.394,2.847-.91,5.788,2.533,3,6.345,6.006,6.458,5.779-.486.974-12.167-3.341-13.808-3.616-7.584-1.271-16.125-1.047-22.977,2.816-4.006,2.258-9.684,7.165-10.621,11.962C235.1,82.728,250.411,75.1,252.065,74.658Z"/><path class="cls-1" d="M279.382,117.951a30.186,30.186,0,0,1,21.733,9.416c4.093,4.47,5.536,15.858,12.994,15.446,4.249-.235,17.847,2.879,17.139-4.372-.81-8.286-5.081-15.425-10-21.924-10.726-14.159-27.112-23.31-45.334-22.183-36.24-3.392-50.325,50.666-22.669,70.322,12.424,8.831,30,6.237,37.943-6.868,8.631-14.233-7.294-36.128-22.168-22.8-7.287,6.532-10.6,1.755-7.306-6.993C264.34,121.028,272.424,117.89,279.382,117.951Z"/><path class="cls-1" d="M421.9,142.364c-5.368-4.869-9.019-11.162-17.6-8.042a16.7,16.7,0,0,0-10.824,16.9c.968,16.887,21.393,23.869,35.22,18.519,35.046-13.558,21.368-66.772-12.145-71.993C400.4,95.235,383.583,98.834,371.9,110.7a63.174,63.174,0,0,0-13.736,21.644c-3.934,10.289.017,10.417,9.15,10.41h.756c.633,0,1.221,0-.07,0,11.156-.014,10.081-1.366,15.477-10.165,4.337-7.075,11.962-10.624,19.9-12.128,6.59-1.248,15.594,3.41,19.478,8.693C424.661,131.6,426.32,146.372,421.9,142.364Z"/><path class="cls-1" d="M12.433,151.575c9.528,5.554,24.545,5.526,29.883-5.8,3.946-8.373-.072-18.874-9.4-20.878-5.824-1.252-8.177,6.018-12.134,5.44-6.833-1-.325-13.312,1.475-15.448,15.726-18.663,50.346-7.916,69.053-.693,2.491.963,1.579,3.509-.939,2.566-4.716-1.764-11.744-.527-14.763,3.887-4.164,6.091,21.689,7.012,26.735,8.965,22.644,8.762,39.387,27.994,58.377,42.4,2.268,1.72,4.586-.967,2.294-2.781a123.477,123.477,0,0,1-15.44-15.205c-9.391-10.6-18.344-21.788-28.629-31.558C99.588,104.084,75.162,92.751,48.425,91.3,24.73,90.014.007,100.587.007,127.187-.185,137.2,3.358,146.286,12.433,151.575Z"/><path class="cls-1" d="M547.841,149.381c-4.4,4.856-8.543,10.1-13.282,14.636-.4.367-7.279,6.989-2.287,5.8,6.328-1.5,16.667-12.056,21.607-16.255,7.937-6.746,16.378-14.146,26.348-17.638,5.72-2,11.1-5.207,17.111-6.338a25.841,25.841,0,0,1,6.349.383c3.785.481,7.849.961,9.223-.491,6.878-7.271-16.1-9.639-15.986-9.277-1.089-3.611,30.768-8.766,34.028-9.336,10.5-1.836,26.01.243,34.151,7.836a19.417,19.417,0,0,1,6.167,13.032c.021.363-2.307,12.758-4.411,7.117-3.719-9.976-16.45-11.388-21.161-.756-11.351,25.614,31.977,29.218,41.881,8.7,13.517-28-16.926-49.968-41.569-49.175-25.411-1.454-52.484,8.916-71.656,25.2C564.795,130.943,556.25,140.1,547.841,149.381Z"/><path class="cls-1" d="M530.968,99.281c.113,11.315-.033,22.386-2.21,33.536-1.389,7.122-9.886,20.721-7.778,27.727,2.269,7.543,11.759-17.734,12.465-19.72,3.823-10.734,7.075-21.658,10.383-32.559,5.4-17.785,12.112-39.851,30.555-48.861a37.607,37.607,0,0,1,10.293-3.052c1.375-.233,3.1.513,4.811,1.259,2.24.975,4.466,1.951,5.883.735,7.1-6.095-9.673-10.855-12.749-11.327-2.317.367-21.753,7.931-20.033,9.138-2.034-1.428,1.684-6.375-.508-8.834-2.956-3.316-8.525,3.884-10.11,5.618-6.558,7.177-7.173,14.345-10.556,22.817-1.281,3.207-3.628-14.913-4.02-16.661-2.454-10.968-5.267-22.274-10.683-32.189-4.3-7.882-10.726,8.99-10.552,12.456.419,8.335,7.572,17.691,9.975,25.807A121.428,121.428,0,0,1,530.968,99.281Z"/><path class="cls-1" d="M101.391,50.854c7.95-1.425,16.033,4.264,21.578,9.308,14.1,12.826,17.952,31.064,22.347,48.764,1.461,5.88,11.948,51.17,18.95,49.845,3.02-.571-8.018-44.214-8.284-50.116A147.034,147.034,0,0,1,165.369,50.1c2.289-6.032,7.558-13.2,5.684-19.86-2.044-7.274-6.65-15.139-11.143-4.894-2.112,4.815-13.187,49.811-12.95,49.805-.021,0-6.648-22.522-8.943-25.379-2.5-3.117-12.265-13.662-12.325-3.645v.015c-.016,7.249-8.459-2.238-11.819-3.483-5.952-2.2-13.224-1.442-18.035,3C88.673,52.274,97.266,51.593,101.391,50.854Z"/><path class="cls-1" d="M125.692,46.132v0C125.693,46.074,125.693,46.084,125.692,46.132Z"/><path class="cls-1" d="M573.755,81.83c-7.184.581-14.907,11.845-17.857,17.492-2.659,5.091-25.551,57.817-24.214,58.576,1,.569,35.863-48.31,40.72-53.061,8.183-8.005,19.121-16.872,31.358-15.463,15.714,1.809,1.9-6.337-5.9-6.848C594.517,83,574.788,93,574.653,92.914,572.716,91.657,580.512,81.283,573.755,81.83Z"/><path class="cls-1" d="M83.639,83.41c4.252-.88,8.313.782,12,2.688A91.222,91.222,0,0,1,126.8,111.722c2.957,3.905,22.473,38.687,25.736,37.291,1.84-.787-13.987-38.3-15.418-42.114-2.458-6.551-4.955-13.3-9.156-18.972-1.213-1.638-15.056-15.156-15.743-7.983a2.626,2.626,0,0,0-.025.755,1.777,1.777,0,0,0,.07.231c.45,1.436,2.7,8.211-1.138,5.4-5.733-4.2-11.482-7.3-18.6-8.517-1.826-.312-20.1.759-15.573,6.845A5.9,5.9,0,0,0,83.639,83.41Z"/><path class="cls-1" d="M311.908,157.511a40.46,40.46,0,0,1,5.013-.035c18.319,1.368,36.305,1.881,54.673,1.644a31.371,31.371,0,0,1,3.614.288c4.385.5,9.557.994,9.776-4.383.38-9.316-7.771-8.752-15.085-8.188-1.75.135-3.452.269-4.978.269h-.03c-16.973-.01-34-.648-50.979-1-4.014-.083-11.753-2.208-12,4.168C301.615,158.058,306.35,157.784,311.908,157.511Zm52.955-10.4h0Z"/><path class="cls-1" d="M166.243,118.529c-.3,7.779.306,13.187,2.371,18.625a2.17,2.17,0,0,0,2.641,2.2c2.833-.673.57-6.75.456-7.668-1.766-14.136.49-27.374,5.5-40.573,1.457-3.843,7.034-12.387,5.621-16.551-2.586-7.629-7.826,4.226-8.455,6.149-1.98,6.06-4.418,11.981-5.883,18.2A80.324,80.324,0,0,0,166.243,118.529Z"/><path class="cls-1" d="M515.93,143.5c7.476,2.213,3.81-31.5,3.338-34.469-.881-5.542-5.086-32.531-12.731-32.1-6.566-.441-1.467,7.8-.535,9.671,3.639,7.292,5.673,14.829,7.765,22.654,1.472,5.51,3.144,11.04,3.363,16.783C517.236,128.828,513.185,142.683,515.93,143.5Z"/><path class="cls-1" d="M348.477,27.777c10.267,0,4.829-9.909-2.056-10.3-4.436-.25-9.6,1.674-10.838,6.485C334.45,28.355,346.117,28.268,348.477,27.777Z"/><path class="cls-1" d="M343.949,126.076c-8.647.159-7.888,13.4.426,13.386C352.867,139.444,352.344,125.921,343.949,126.076Z"/><path class="cls-1" d="M504.489,73.636h0c8.421-.033,7.578-13.286-.159-13.373-4.157-.047-6.272,3.32-6.264,6.686S500.189,73.652,504.489,73.636Z"/><path class="cls-1" d="M177.578,62.255c0,.123,0,.2,0,.3,0-.1,0-.2,0-.3.052,8.469,12.88,8.446,12.928-.021.046-8.385-12.97-8.592-12.928.009v.006Z"/><path class="cls-1" d="M177.583,63.183c0-.1,0-.314,0-.572C177.582,62.92,177.583,63.1,177.583,63.183Z"/><path class="cls-1" d="M177.578,62.205c0-.342,0-.566,0-.71C177.576,61.67,177.576,61.932,177.578,62.205Z"/><path class="cls-1" d="M351.774,6.313c-.121-8.348-13.181-8.524-12.9.112C339.144,14.605,351.9,14.968,351.774,6.313Z"/></g></g></svg>